<?xml version="1.0" encoding="utf-8"?>
<!-- Generator: Adobe Illustrator 27.8.1, SVG Export Plug-In . SVG Version: 6.00 Build 0)  -->
<svg version="1.1" id="Layer_2_00000114763824735588645020000005649521244015736212_"
	 xmlns="http://www.w3.org/2000/svg" xmlns:xlink="http://www.w3.org/1999/xlink" x="0px" y="0px" viewBox="0 0 143.7 75.6"
	 style="enable-background:new 0 0 143.7 75.6;" xml:space="preserve">
<style type="text/css">
	.st0{fill:#481250;}
</style>
<rect x="142.9" y="3.7" class="st0" width="0.8" height="71.9"/>
<g>
	<g>
		<path class="st0" d="M54.4,0.2c0.9-0.3,2-0.2,2.7,0c2,0.6,1.7,1.9,1.4,4C58.3,5,58.4,6,58,6.5c-0.8-0.5-0.1-1.7-0.4-2.5
			c-0.6-1.7-4.2-1.8-6.2-1c-2.3,0.9-4.3,3.1-5.9,5.3c-1.6,2.3-2.9,4.8-4.2,7.2c-2.8,5.4-5.6,10.3-7.8,14.9c1.9,0,4.3,0,6.2,0
			c0.4,0,1.1-0.1,1.5,0.1c0.1,0-0.1,0.6-0.2,0.7c-0.4,0-0.9,0-1.2,0c-2.1,0-4.5,0-6.4,0c-8.8,16-17.7,32-32.6,42H0.2v-0.4
			C7.4,68,12.8,61.4,17.5,54c3.5-5.5,6.8-11.4,9.9-17.1c0.9-1.7,1.9-3.5,2.7-5.1c0-0.1,0.6-0.5,0.1-0.6c-2.2,0.5-4.4,0.1-5.9,1
			c-0.6,0.3-0.9,0.9-1.2,1.4c-0.3,0.5-0.4,1.4-1.2,1.5c0.9-1.6,1.3-3.4,3.1-4.1c1.6-0.7,3.7-0.4,6.1-0.6c3-5.4,6.3-11.2,9.9-16.7
			C44.3,8.4,48.5,2.5,54.4,0.2"/>
		<path class="st0" d="M48.1,21.7c0.2,1.5-0.7,2.8-2.3,2.7C44.6,23,46.4,20.7,48.1,21.7"/>
		<path class="st0" d="M107.4,34.2c-1.5,1.9-2.9,4.3-3.1,6.8c1.3-0.3,2.4-1.1,3.3-2c2.3-2.1,4.1-5.3,5.6-7.9c0.2-0.4,0.7-1,0.4-1.1
			C110.7,30.3,108.8,32.4,107.4,34.2 M122.6,33.9v0.7c-1.3,1.3-2.9,3.3-4.8,5c-1.5,1.3-4,3.4-6.2,3.7c-4.1,0.6-3.1-3.7-1.9-5.6
			c-1.4,1.1-3.3,3.7-5.3,4.5c-0.6,0.2-1.8,0.5-2.5-0.2c-0.2-1-0.1-2,0.2-3c0.6-1.6,2-3.8,3.6-5.3c2.2-2.2,4.7-3.9,8.2-4.2
			c0.4-0.3,0.6-0.8,1-1.1c0.7-0.1,1.2-0.4,2-0.5c-0.1,0.7-0.7,0.9-0.9,1.5c0.3,0.5,1.7-0.1,1.7,0.7c-0.4,0.6-1.3-0.2-2.1,0
			c-1.3,2.1-3.1,5.4-4.2,8.2c-0.5,1.3-1.5,3.4-0.2,4.1c3.4-0.2,4.9-2.1,6.8-3.8C119.6,37,121.2,35.2,122.6,33.9"/>
		<path class="st0" d="M98,29.3c0.7,0,0.1,0.7,0,1c-0.4,2.1,0.8,3.3,3,2.7c1-0.3,1.8-0.9,2.6-1.5c0.9-0.6,1.6-1.6,2.5-1.4
			c0.4,0.7-0.5,1-0.9,1.2c-6.3,4.9-8.9,8.3-15,13.6c4.5,2.9,9.7,6.7,15.5,8.8c1.4,0.5,3,1,5.1,0.7c3.6-0.4,6.6-4.1,8.7-6.6
			c0.4-0.5,0.8-0.9,1.1-1.4c0.3-0.4,0.5-1.3,1.2-1.2c-0.2,1.3-1.2,2.2-2,3.1c-2.5,3-5.1,6.5-10.3,6.9c-9.1,0.7-15.7-5.9-21.5-9.2
			c-1.1,0.2-1.8,1.7-2.8,1.1c-0.1-0.8,0.8-0.8,1.2-1.1c1.2-0.8,2.7-1.9,3.8-3c1.6-1.4,3.2-2.8,4.8-4.2c3.3-2.7,3.6-2.6,6.5-5.7
			c-2.2,1-6.3,1.2-5.9-1.7c0.2-1.2,1.4-1.6,2.2-2.4H98z"/>
		<path class="st0" d="M88,30c-0.9,1.9-2.1,3.7-3.2,5.6c-0.7,1.2-1.5,2.4-1.9,3.8c-0.1,0.4-0.2,0.7-0.3,1.1c0,0.3-0.2,0.8-0.1,1.1
			c0.3,0.6,1.4,0.6,2,0.5c1-0.2,1.9-1,2.7-1.6c2.1-1.4,3.7-2.9,5.3-5c0.3-0.3,0.7-1.2,1-1c0.3,0.3-0.4,1.1-0.7,1.5
			c-1.1,1.3-2.2,2.5-3.6,3.7c-1.8,1.5-3.8,3.2-6.2,3.5c-0.9,0.1-1.6,0.2-2.4-0.4c-0.5-0.4-0.3-1-0.2-1.6c0.1-0.6,0.3-1.1,0.5-1.6
			c0.4-1,1-1.9,1.5-2.8c1-1.7,2-3.4,2.7-5.3c-1.3,0.4-2.2,1.4-3.1,2.2c-1,0.8-1.9,1.6-2.7,2.6c-0.9,1-1.6,2.3-2.3,3.5
			c-0.3,0.6-0.7,1.2-1.1,1.8c-0.2,0.3-0.4,0.5-0.6,0.8c-0.2,0.2-0.3,0.3-0.5,0.1c-0.3-0.4-0.6-0.9-0.5-1.5c0.1-0.5,0.4-1,0.7-1.4
			c0.5-0.7,1.2-1.3,1.6-2.1c0.4-0.6,0.7-1.2,1.1-1.9c0.3-0.7,0.6-1.4,0.8-2c0.3-0.8,0.6-1.5,0.9-2.3c0.2-0.4,0.3-0.8,0.6-1.1
			c0.2-0.3,0.2-0.4,0.6-0.4c0.3,0.1,0.6,0.2,0.8,0.5c0.4,0.7-0.4,1.8-0.8,2.4c-0.4,0.6-0.8,1.4-1,2.2c1.6-1.4,4.9-4.3,7-5.6
			C87.1,29.2,87.8,29.6,88,30"/>
		<path class="st0" d="M67.1,31.1C66,32,64.9,34,64.6,35c2.9,0.1,4.7-1.6,4.5-4.3C68.2,30.4,67.5,30.8,67.1,31.1 M70.9,30.1
			c0.7,2.6-2.1,4.8-4.6,5.3c-0.6,0.1-1.4,0.1-2.1,0.1c-0.8,1.2-1.8,5.2-0.1,5.8c0.8,0.3,1.7,0.2,2.6,0c2.9-0.7,5.6-3.4,7.4-5.4
			c0.2-0.3,0.5-0.7,0.9-0.6c0.6,0.4-0.3,1-0.5,1.2c-2,2.4-5.5,5.1-9,6.1c-0.7,0.2-1.9,0.4-3.1,0.1c-1.2-0.5-1.8-1.4-1.6-3.3
			c0.3-3.5,4.1-8.3,7.2-9.4C68.8,29.7,70.2,29.6,70.9,30.1"/>
		<path class="st0" d="M44.2,30.2c0.1,0.1-0.1,0.5-0.2,0.6c-0.1,0.2-0.2,0.4-0.3,0.7c-0.2,0.4-0.5,0.9-0.7,1.3
			c-0.5,0.8-1,1.7-1.4,2.5c-0.4,0.9-0.9,1.7-1.3,2.6c-0.3,0.8-0.6,1.7-0.5,2.6c0.1,0.3,0.1,0.5,0.4,0.6c0.4,0.2,0.8,0.2,1.2,0.2
			c0.8,0,1.5-0.4,2.1-0.8c2.3-1.2,4.5-3.4,6.2-5.3c0.3-0.3,0.5-1.1,1.1-0.9c-0.8,1.7-2.7,3.4-4.5,4.8c-1.8,1.5-3.7,2.9-6.1,3.1
			c-5,0.5-2.6-4.3-1.1-6.9c0.4-0.7,0.9-1.6,1.4-2.4c0.4-0.7,0.8-1.5,1.4-2c0.3-0.3,0.6-0.5,1-0.7c0.2-0.1,0.5-0.2,0.7-0.2
			c0.1,0,0.3-0.1,0.4,0C44.1,30.2,44.1,30.2,44.2,30.2"/>
		<path class="st0" d="M54.1,33.1c-0.8,1.1-1.6,2.2-2.2,3.5c-0.6,1.3-1.1,2.7-1.2,4.1c0,0.2,0,0.3,0,0.5c0,0.1,0,0.2,0.1,0.3
			c0.1,0.1,0.3-0.1,0.4-0.2c0.1-0.1,0.3-0.2,0.4-0.3c0.3-0.2,0.5-0.4,0.8-0.6c0.5-0.5,0.9-1,1.4-1.5c0.6-0.7,1.1-1.5,1.7-2.2
			c1.4-1.9,2.8-3.8,3.8-5.9C56.5,30.4,55.3,31.7,54.1,33.1 M56,37.2c0.1-0.1,0.1-0.2,0.1-0.2s-0.1,0.1-0.2,0.2
			c-0.8,1.1-1.6,2.2-2.7,3.5c-0.7,0.8-2.5,2.8-4.1,2.3c-1.5-0.4-0.6-3.1-0.1-4.1c0.7-1.5,1.5-2.6,2.1-3.5c2.1-3,4.5-5.8,8.7-5.8
			c0.5-0.6,0.9-1.4,1.4-2.1c0.4-0.6,0.6-1.7,1.5-1.9c1.5,1.3,0.2,3-0.9,5.1c-4.4,8.2-8.8,15.5-13.6,23.4c-2.9,4.7-5.3,8.7-9,12.1
			c-3.7,3.4-8.8,6.3-15.2,5.9c-5.3-0.3-8.3-2.9-8.4-8.4c0-1.1,0.1-2.5,0.9-3.2c0.2,1.4-0.2,1.9-0.1,3.2c0.4,5.4,7.2,7.6,12.9,6.8
			c7.9-1.1,12.9-7.6,16.3-13.7c2.8-5,5.2-9.8,7.9-14.7C54.2,40.4,55.1,38.6,56,37.2"/>
		<g>
			<path class="st0" d="M69,16.4c0.1,0,0.2,0.1,0.3,0.1c0.2,0,0.4,0,0.6,0c0.2,0,0.4,0,0.5-0.1c0.1,0,0.2-0.1,0.3-0.1
				c0.2-0.1,0.4-0.2,0.7-0.2c0.2,0,0.5,0,0.7,0c0.2,0.1,0.5,0.1,0.7,0c0.2,0,0.3-0.1,0.5-0.1c0,0,0.1-0.1,0.1-0.1
				c0.1-0.1,0.1-0.1,0.2-0.1c0.2,0,0.3,0.1,0.5,0.1c0.2,0.1,0.4,0.3,0.6,0.4c0.1,0.1,0.1,0.3,0.1,0.4c0,0.2-0.1,0.3-0.2,0.4
				c-0.1,0.3-0.3,0.5-0.3,0.8c0,0.2-0.1,0.3-0.1,0.5c0,0.1-0.1,0.1-0.1,0.2c0,0.1-0.1,0.1-0.1,0.2c0,0.1-0.1,0.2-0.2,0.3
				c-0.1,0-0.1,0.1-0.2,0.1c0,0-0.1,0.1-0.1,0.1c0,0.1-0.1,0.2-0.1,0.2c-0.1,0.1-0.1,0.1-0.2,0.1c0,0-0.1,0-0.1,0
				c-0.1,0.1-0.2,0.2-0.3,0.2c0,0-0.1,0-0.1,0c0,0,0,0-0.1,0c0,0-0.1,0.1-0.1,0.1c-0.1,0.1-0.2,0.1-0.3,0.2c-0.1,0-0.1,0-0.2,0.1
				c-0.1,0-0.1,0.1-0.2,0.1c-0.1,0.1-0.3,0.2-0.4,0.2c-0.2,0-0.3,0-0.5-0.1c-0.4-0.1-0.7-0.2-1.1-0.3c-0.2-0.1-0.4-0.1-0.5-0.2
				c0,0-0.1-0.1-0.1-0.1c0,0.1-0.1,0.1-0.1,0.2c0,0.2,0.1,0.4,0.3,0.6c0.1,0.2,0.2,0.3,0.3,0.5c0,0.1,0.1,0.2,0.1,0.4
				c0,0.1,0.1,0.2,0.1,0.3c0,0,0,0,0,0c0,0.2,0,0.4-0.1,0.5c0,0.1-0.1,0.2-0.2,0.3c-0.1,0.1-0.1,0.1-0.2,0.2C69.3,23,69.2,23,69,23
				c-0.1,0-0.1,0-0.2-0.1c0,0,0,0-0.1,0c-0.1,0.1-0.3,0.1-0.4,0c-0.1-0.1-0.1-0.1-0.2,0c-0.1,0.1-0.2,0-0.4-0.1
				c-0.1-0.1-0.1-0.1-0.2-0.1c-0.1,0-0.3,0-0.4-0.1c-0.1-0.1-0.1-0.1-0.2-0.1c-0.3,0-0.5-0.2-0.6-0.5c-0.1-0.2-0.1-0.4-0.1-0.6
				c0-0.1,0-0.2,0-0.3c0-0.1,0-0.3,0-0.4c0-0.2,0-0.5-0.2-0.6c-0.1-0.1-0.1-0.1-0.2-0.2c-0.1-0.1-0.1-0.2-0.2-0.3
				c0-0.1-0.1-0.2-0.2-0.3c0-0.1-0.1-0.2-0.1-0.2c0,0,0,0,0,0c0,0,0,0,0,0c-0.2,0.3-0.4,0.6-0.6,0.8c-0.1,0.1-0.2,0.2-0.4,0.3
				c-0.4,0.4-0.9,0.8-1.2,1.2c-0.1,0.2-0.3,0.4-0.3,0.6c0,0.1,0,0.2-0.1,0.3c0,0,0,0,0,0c-0.2-0.1-0.5-0.2-0.7-0.3
				c0-0.1,0.1-0.2,0.1-0.2c0.2-0.4,0.5-0.8,0.8-1.1c0.2-0.3,0.5-0.5,0.8-0.7c0.2-0.1,0.3-0.2,0.5-0.3c0.3-0.3,0.6-0.6,0.9-0.9
				c0,0,0,0,0,0c-0.1,0-0.1,0-0.2,0c-0.3-0.1-0.6-0.1-1-0.3c-0.2-0.1-0.4-0.1-0.6-0.2c-0.1,0-0.3-0.1-0.4-0.1c-0.1,0-0.3,0-0.4-0.1
				c-0.2,0-0.5-0.1-0.7-0.2c-0.3-0.2-0.5-0.4-0.6-0.8c0-0.1-0.1-0.2-0.1-0.2c0,0,0,0,0,0c-0.1,0-0.1-0.1-0.2-0.1
				c-0.1-0.1-0.1-0.2-0.2-0.3c0-0.1,0-0.1-0.1-0.1c0,0-0.1-0.1-0.1-0.1c-0.1-0.1-0.1-0.2,0-0.3c0,0,0-0.1,0-0.1
				c-0.1-0.1-0.1-0.2-0.1-0.4c0,0,0,0,0,0c0-0.1,0-0.1-0.1-0.2c-0.1-0.1-0.1-0.2-0.1-0.3c0-0.1,0-0.2,0.1-0.3
				c0.2-0.2,0.4-0.3,0.7-0.3c0.3,0,0.7,0.1,1,0.2c0.4,0.1,0.7,0.3,1,0.6c0.1,0.1,0.2,0.2,0.2,0.2c0.1,0.1,0.1,0.1,0.2,0.1
				c0.1,0,0.1,0,0.2,0c0.1,0,0.1-0.1,0.1-0.1c0-0.3-0.1-0.5-0.3-0.7c-0.1-0.1-0.3-0.3-0.5-0.4c-0.1-0.1-0.2-0.1-0.3-0.2
				c-0.1-0.1-0.2-0.3-0.2-0.4c0-0.4,0.1-0.7,0.3-1.1c0.1-0.1,0.1-0.3,0.2-0.4c0.1-0.2,0.2-0.3,0.3-0.5c0.1-0.1,0.2-0.2,0.4-0.3
				c0,0,0,0,0,0c0,0,0.1,0,0.1-0.1c0-0.1,0.1-0.2,0.2-0.2c0.1,0,0.1-0.1,0.2-0.2c0.1-0.1,0.2-0.2,0.4-0.2c0.1,0,0.1,0,0.2-0.1
				c0.1-0.1,0.1-0.1,0.2-0.1c0.1,0,0.2-0.1,0.2-0.2c0.1-0.1,0.2-0.2,0.3-0.2c0,0,0.1,0,0.1,0c0,0,0,0,0.1,0c0.1-0.1,0.1-0.2,0.3-0.2
				c0,0,0.1,0,0.1,0c0.1,0,0.1,0,0.2,0c0.2,0,0.3,0,0.5,0.1c0.1,0.1,0.2,0.2,0.3,0.3c0,0.1,0.1,0.2,0.1,0.2c0,0,0,0,0,0.1
				c0.1,0.2,0.3,0.3,0.4,0.5c0,0,0,0,0,0.1c0.1,0.2,0.1,0.4,0.1,0.6c0,0.1-0.1,0.2-0.1,0.3c-0.1,0.1-0.2,0.2-0.2,0.3
				c-0.4,0.6-0.7,1.3-1,2c-0.1,0.3-0.2,0.5-0.3,0.8c0,0.1,0,0.2,0,0.2c0,0.1,0.1,0.2,0.2,0.2c0.1,0,0.3,0,0.4,0c0,0,0,0,0,0
				c0.4-0.5,0.8-1.1,1.2-1.6c0.1-0.2,0.3-0.4,0.3-0.7c0-0.1,0.1-0.2,0.1-0.3c0-0.2,0.1-0.5,0.1-0.7c0.1-0.5,0.3-1,0.6-1.4
				c0.1-0.2,0.2-0.4,0.4-0.5c0.1,0,0.2-0.1,0.3-0.1c0.1-0.1,0.3-0.1,0.4-0.2c0.1-0.1,0.2-0.1,0.3-0.1c0.1,0,0.3,0,0.4,0.1
				c0.1,0,0.2,0.1,0.3,0.1c0,0,0,0,0.1,0c0.1,0,0.1,0,0.2,0c0,0,0.1,0,0.1-0.1c0.2-0.1,0.3-0.1,0.5,0c0.1,0,0.1,0.1,0.2,0.1
				c0.1,0,0.1,0,0.2,0c0.1-0.1,0.3-0.1,0.4-0.1c0.1,0,0.1,0,0.2,0.1c0.1,0.1,0.2,0.2,0.4,0.2c0.1,0,0.2,0.1,0.3,0.1
				c0.1,0,0.1,0.1,0.1,0.1c0,0,0,0,0.1,0.1c0.1,0.1,0.1,0.1,0.1,0.2c0,0.1,0,0.2,0,0.3c0,0.1,0,0.2,0,0.3c0,0.1,0,0.3,0,0.4
				c0,0.1,0,0.2,0,0.2c0,0,0,0,0,0.1c0,0.1,0,0.2,0.1,0.2c0,0.1,0,0.2-0.1,0.3c0,0.1-0.1,0.1-0.1,0.2c0,0,0,0,0,0.1
				c0,0.2,0,0.4-0.1,0.5c0,0.1-0.1,0.1-0.1,0.2c0,0.1-0.1,0.2-0.1,0.3c0,0-0.1,0.1-0.1,0.1c0,0,0,0.1-0.1,0.1c0,0.1,0,0.2,0,0.2
				c0,0.1-0.1,0.2-0.2,0.2c-0.1,0-0.1,0.1-0.1,0.1c-0.1,0.1-0.2,0.3-0.3,0.3c-0.2,0.2-0.5,0.4-0.8,0.5c-0.2,0.1-0.3,0.1-0.5,0
				c-0.3-0.1-0.6-0.1-0.9-0.1c-0.2,0-0.3,0-0.5,0.1c-0.2,0.1-0.4,0.2-0.6,0.3c-0.1,0-0.1,0.1-0.2,0.2c0,0-0.1,0.1-0.1,0.1
				C69.1,16.3,69.1,16.3,69,16.4C69,16.4,69,16.4,69,16.4z M68.8,22.8c0.1,0,0.1,0.1,0.1,0.1c0.1,0,0.2,0,0.3,0c0,0,0,0,0.1-0.1
				c0.1-0.1,0.2-0.1,0.2-0.2c0.1-0.1,0.1-0.2,0.2-0.3c0-0.1,0-0.2,0.1-0.3c0-0.1,0-0.2,0-0.3c0,0,0-0.1,0-0.1c0-0.1-0.1-0.3-0.1-0.4
				c-0.1-0.2-0.2-0.3-0.3-0.5c-0.1-0.2-0.2-0.4-0.3-0.6c0-0.1,0-0.2,0.1-0.3c0,0,0.1,0,0.1,0c0,0,0.1,0.1,0.1,0.1
				c0.1,0.1,0.2,0.1,0.3,0.1c0.3,0.1,0.6,0.2,1,0.3c0.3,0.1,0.5,0.1,0.8,0.1c0.2,0,0.3,0,0.4-0.2c0,0,0,0,0.1-0.1
				c0.1,0,0.2-0.1,0.3-0.1c0.1,0,0.2-0.1,0.3-0.2c0,0,0.1-0.1,0.1-0.1c0,0,0,0,0.1,0c0,0,0,0,0.1,0c0.1,0,0.2-0.1,0.3-0.2
				c0,0,0.1-0.1,0.1,0c0.1,0,0.2,0,0.2-0.1c0-0.1,0.1-0.1,0.1-0.2c0,0,0-0.1,0.1-0.1c0,0,0.1-0.1,0.1-0.1c0.1-0.1,0.2-0.2,0.2-0.3
				c0,0,0-0.1,0-0.1c0,0,0-0.1,0.1-0.1c0.1-0.1,0.1-0.2,0.2-0.3c0-0.1,0.1-0.3,0.1-0.4c0.1-0.3,0.2-0.6,0.4-0.8
				c0.1-0.1,0.1-0.2,0.1-0.4c0-0.1,0-0.3-0.1-0.4c-0.2-0.1-0.3-0.3-0.5-0.4c-0.1-0.1-0.3-0.1-0.5-0.2c-0.1,0-0.2,0-0.2,0.1
				c0,0-0.1,0.1-0.1,0.1c-0.2,0.1-0.3,0.1-0.5,0.1c-0.3,0-0.5,0-0.8,0c-0.2,0-0.4-0.1-0.6,0c-0.3,0-0.5,0.1-0.8,0.2
				c-0.1,0.1-0.2,0.1-0.4,0.2c-0.4,0.1-0.7,0.2-1.1,0.1c-0.1,0-0.2,0-0.3-0.1c0,0,0,0,0-0.1c0.1-0.1,0.1-0.1,0.2-0.2
				c0.1-0.1,0.2-0.2,0.3-0.2c0.2-0.1,0.5-0.3,0.7-0.4c0.2-0.1,0.3-0.1,0.5-0.1c0.3,0,0.6,0,0.9,0.1c0.1,0,0.3,0,0.4,0
				c0.3-0.1,0.5-0.2,0.7-0.4c0.1-0.1,0.3-0.2,0.3-0.4c0-0.1,0.1-0.1,0.2-0.2c0.1,0,0.1-0.1,0.2-0.2c0-0.1,0-0.2,0-0.3c0,0,0,0,0-0.1
				c0-0.1,0.1-0.1,0.1-0.2c0.1-0.1,0.1-0.2,0.1-0.3c0-0.1,0-0.1,0.1-0.2c0.1-0.2,0.2-0.3,0.1-0.5c0,0,0,0,0,0c0,0,0.1-0.1,0.1-0.1
				c0.1-0.1,0.1-0.2,0.1-0.4c0-0.1,0-0.1-0.1-0.2c0,0,0,0,0-0.1c0-0.2,0.1-0.4,0.1-0.7c0-0.1,0-0.2,0-0.3c0,0,0-0.1,0-0.1
				c0-0.1,0-0.2-0.1-0.2c0,0-0.1-0.1-0.1-0.1c-0.1-0.1-0.1-0.1-0.2-0.1c-0.1,0-0.1,0-0.2-0.1c-0.1,0-0.3-0.1-0.4-0.2
				c0,0-0.1-0.1-0.2-0.1c-0.1,0-0.2,0-0.3,0.1c-0.1,0.1-0.2,0.1-0.3,0c0,0-0.1-0.1-0.1-0.1C72,10.1,71.9,10,71.8,10
				c-0.1,0-0.2,0-0.3,0.1c-0.1,0.1-0.2,0.1-0.3,0c-0.1,0-0.2-0.1-0.3-0.1c-0.1,0-0.2-0.1-0.3-0.1c-0.1,0-0.2,0-0.3,0.1
				c-0.1,0.1-0.3,0.2-0.5,0.3c-0.3,0.1-0.5,0.3-0.6,0.5c-0.2,0.5-0.4,1-0.6,1.5c-0.1,0.2-0.1,0.4-0.1,0.6c0,0.1,0,0.2-0.1,0.3
				c-0.1,0.2-0.2,0.5-0.3,0.7c-0.4,0.6-0.8,1.1-1.2,1.7c0,0,0,0,0,0c-0.1,0-0.3,0.1-0.4,0c-0.2,0-0.3-0.1-0.3-0.3c0-0.1,0-0.1,0-0.2
				c0-0.2,0.1-0.5,0.2-0.7c0.3-0.8,0.7-1.5,1.1-2.3c0-0.1,0.1-0.2,0.2-0.2c0.1-0.1,0.1-0.2,0.1-0.3c0-0.2,0-0.3,0-0.5
				c0-0.1,0-0.1-0.1-0.2c-0.1-0.1-0.3-0.3-0.4-0.4c0,0,0,0,0,0c0-0.1,0-0.1-0.1-0.2c-0.1-0.2-0.2-0.3-0.4-0.4c0,0-0.1,0-0.1,0
				c-0.1,0-0.2,0-0.3,0c0,0-0.1,0-0.1,0c-0.1,0-0.2,0-0.3,0.1c0,0-0.1,0.1-0.1,0.1c0,0,0,0,0,0c0,0-0.1,0-0.1,0
				c-0.1,0-0.2,0.1-0.3,0.2c-0.1,0.1-0.2,0.1-0.2,0.2c-0.1,0-0.1,0.1-0.2,0.1c-0.1,0.1-0.1,0.1-0.2,0.1c-0.1,0-0.3,0.1-0.4,0.2
				c-0.1,0.1-0.1,0.1-0.2,0.2c-0.1,0.1-0.2,0.1-0.2,0.3c0,0,0,0,0,0c-0.1,0-0.1,0.1-0.2,0.1c-0.1,0-0.1,0.1-0.2,0.1
				c-0.1,0.2-0.3,0.4-0.4,0.5c-0.1,0.1-0.2,0.3-0.2,0.5c-0.1,0.4-0.2,0.7-0.2,1.1c0,0.1,0,0.2,0.1,0.3c0.1,0.1,0.1,0.1,0.2,0.2
				c0.1,0.1,0.3,0.2,0.4,0.3c0.3,0.2,0.5,0.5,0.5,0.9c0,0.1,0,0.2-0.1,0.2c-0.1,0-0.1,0-0.2,0c-0.1,0-0.2,0-0.2-0.1
				c0,0-0.1-0.1-0.1-0.1c-0.1-0.2-0.3-0.3-0.5-0.4c-0.4-0.2-0.9-0.4-1.4-0.5c-0.3,0-0.6,0-0.8,0.2c-0.1,0.1-0.2,0.2-0.1,0.4
				c0,0.1,0.1,0.2,0.2,0.3c0,0,0,0,0,0.1c0,0.1,0,0.1,0,0.2c0,0.1,0.1,0.2,0.1,0.3c0,0,0,0,0,0.1c-0.1,0.1-0.1,0.2,0,0.3
				c0,0,0.1,0.1,0.1,0.1c0,0,0.1,0.1,0.1,0.1c0,0.2,0.1,0.3,0.2,0.4c0,0,0.1,0,0.1,0.1c0,0,0,0,0,0c0,0.1,0.1,0.2,0.1,0.2
				c0,0.1,0.1,0.2,0.1,0.3c0.1,0.2,0.3,0.4,0.5,0.5c0.2,0.1,0.4,0.1,0.6,0.1c0.1,0,0.3,0,0.4,0.1c0.1,0,0.3,0.1,0.4,0.1
				c0.2,0,0.4,0.1,0.5,0.1c0.3,0.1,0.7,0.2,1,0.3c0.1,0,0.1,0,0.2,0c0,0,0,0,0,0c-0.3,0.5-0.7,0.9-1.2,1.2c-0.3,0.2-0.6,0.5-0.9,0.7
				c-0.3,0.4-0.6,0.7-0.9,1.2c-0.1,0.1-0.1,0.2-0.2,0.3c0.2,0.1,0.4,0.2,0.6,0.3c0-0.1,0-0.2,0.1-0.3c0.1-0.2,0.2-0.4,0.3-0.6
				c0.3-0.5,0.8-0.9,1.2-1.2c0.2-0.2,0.4-0.4,0.6-0.6c0.2-0.2,0.3-0.4,0.5-0.6c0,0,0,0,0,0c0,0.2,0.1,0.3,0.2,0.5
				c0,0.1,0.1,0.1,0.1,0.2c0,0.2,0.1,0.3,0.2,0.4c0,0,0.1,0.1,0.1,0.1c0.1,0.2,0.2,0.4,0.2,0.6c0,0.1,0,0.2,0,0.3c0,0.2,0,0.4,0,0.7
				c0,0.2,0.1,0.3,0.1,0.5c0.1,0.2,0.3,0.3,0.5,0.3c0.1,0,0.1,0,0.2,0c0,0,0.1,0.1,0.1,0.1c0.1,0.1,0.2,0.1,0.2,0.1
				c0.1,0,0.1,0,0.2,0c0,0,0,0,0.1,0c0,0,0.1,0.1,0.1,0.1c0.1,0.1,0.2,0.1,0.3,0c0,0,0.1,0,0.1,0c0,0,0,0,0.1,0c0,0,0.1,0.1,0.1,0.1
				C68.6,23,68.7,23,68.8,22.8C68.8,22.9,68.8,22.8,68.8,22.8z"/>
			<path class="st0" d="M68.8,22.6c0,0-0.1,0.1-0.1,0.1c-0.1,0.1-0.1,0.1-0.2,0c0,0-0.1-0.1-0.1-0.1c0,0,0,0,0,0
				c-0.1,0-0.1,0.1-0.2,0.1c-0.1,0-0.1,0-0.1,0c0-0.1-0.1-0.1-0.1-0.2c0,0,0,0-0.1,0c-0.1,0-0.1,0-0.2,0.1c0,0-0.1,0-0.1,0
				c-0.1-0.1-0.1-0.1-0.2-0.2c0,0,0,0,0,0c-0.2,0-0.3,0-0.4-0.1c-0.1-0.1-0.2-0.3-0.2-0.4c-0.1-0.2-0.1-0.5-0.1-0.8
				c0-0.1,0-0.3,0-0.4c0-0.3-0.1-0.5-0.3-0.7c-0.1-0.1-0.2-0.2-0.2-0.3c0-0.1,0-0.1-0.1-0.2c0-0.1-0.1-0.2-0.1-0.3
				c-0.1-0.1-0.1-0.2-0.1-0.3c0,0,0,0,0,0c1.3,1,2.5,2.2,3.6,3.4c0,0,0,0,0-0.1c-0.1-0.2-0.2-0.4-0.4-0.6c-0.4-0.5-0.8-0.9-1.3-1.3
				c-0.5-0.5-1.1-0.9-1.6-1.4C66,19,66,19,65.9,18.9c0,0,0.1,0,0.1,0c0.3,0,0.5,0,0.8,0c0.4,0,0.7,0,1.1-0.1
				c0.5-0.1,1.1-0.2,1.6-0.3c0.6-0.2,1.2-0.4,1.8-0.7c0.7-0.3,1.5-0.6,2.2-0.9c0.2-0.1,0.4-0.2,0.6-0.2c0,0,0.1,0,0.1,0c0,0,0,0,0,0
				c0,0,0,0-0.1,0c-0.6,0.2-1.1,0.4-1.7,0.6c-0.5,0.2-0.9,0.3-1.4,0.5c-0.5,0.2-1,0.3-1.5,0.5c-0.5,0.1-1,0.2-1.5,0.3
				c-0.2,0-0.5,0.1-0.8,0.1c-0.3,0-0.6,0-0.9,0c-0.2,0-0.4,0-0.5,0c0,0,0,0-0.1,0c0-0.1,0.1-0.1,0.1-0.2c0.3-0.5,0.7-1,1.1-1.4
				c0.3-0.4,0.6-0.7,1-1.1c0.4-0.4,0.9-0.9,1.3-1.3c0.3-0.3,0.6-0.6,0.9-0.9c0.4-0.4,0.9-0.8,1.3-1.2c0.4-0.4,0.9-0.7,1.3-1.1
				c0.2-0.2,0.5-0.4,0.7-0.6c0,0,0.1-0.1,0.1-0.1c0,0,0,0,0,0c0,0-0.1,0-0.1,0.1c-0.7,0.5-1.4,1-2,1.5c-0.5,0.4-0.9,0.8-1.4,1.2
				c-0.4,0.3-0.7,0.7-1.1,1c-0.4,0.4-0.7,0.7-1.1,1.1c-0.5,0.5-1,1-1.4,1.6c-0.3,0.4-0.6,0.7-0.8,1.1c0,0,0,0,0,0
				c0-0.1,0-0.2-0.1-0.3c-0.1-0.5-0.1-1-0.1-1.5c0-0.3,0-0.5,0-0.8c0-0.3,0-0.6,0.1-0.8c0-0.4,0.1-0.7,0.1-1.1
				c0.1-0.5,0.2-1,0.3-1.6c0.1-0.6,0.3-1.2,0.4-1.9c0,0,0,0,0-0.1c0,0,0,0,0,0c0,0,0,0.1,0,0.1c-0.2,0.3-0.3,0.7-0.4,1
				c-0.2,0.6-0.3,1.1-0.4,1.7c-0.1,0.4-0.1,0.8-0.2,1.2c0,0.4-0.1,0.7-0.1,1.1c0,0.3-0.1,0.7-0.1,1c0,0.2,0,0.5,0,0.7
				c0,0.2,0,0.4,0,0.7c0,0.2,0,0.3,0.1,0.5c-0.1,0-0.1-0.1-0.2-0.1c-0.4-0.3-0.7-0.6-1.1-1c-0.5-0.4-0.9-0.9-1.4-1.3
				c-0.4-0.4-0.9-0.7-1.4-1c0,0,0,0-0.1,0c1.4,1.2,2.7,2.5,4.1,3.7c-0.1,0-0.2,0-0.2-0.1c-0.3-0.1-0.5-0.2-0.8-0.3
				c-0.2-0.1-0.4-0.1-0.6-0.2c-0.1,0-0.3-0.1-0.4-0.1C63.1,18,63,18,62.8,18c-0.5,0-0.8-0.3-1-0.7c-0.1-0.1-0.1-0.3-0.2-0.4
				c0,0,0,0-0.1,0c0,0,0,0,0,0c-0.2-0.1-0.3-0.2-0.3-0.4c0,0,0-0.1-0.1-0.1c-0.1-0.1-0.1-0.1-0.2-0.2c0,0,0-0.1,0-0.1
				c0-0.1,0.1-0.1,0.1-0.2c0,0,0-0.1-0.1-0.1C61,15.7,61,15.6,61,15.4c0,0,0-0.1,0-0.1c-0.1-0.1-0.1-0.1-0.1-0.2
				c-0.1-0.1,0-0.2,0.1-0.3c0.2-0.2,0.4-0.2,0.6-0.2c0.4,0,0.8,0.2,1.1,0.3c0.2,0.1,0.4,0.2,0.6,0.4c0.1,0.1,0.1,0.1,0.2,0.2
				c0.1,0.1,0.2,0.2,0.3,0.1c0.1,0,0.2,0,0.3-0.1c0.2-0.1,0.2-0.2,0.2-0.4c0-0.3-0.2-0.5-0.3-0.8c-0.1-0.1-0.3-0.3-0.5-0.4
				c-0.1-0.1-0.2-0.1-0.3-0.2c-0.1-0.1-0.1-0.2-0.1-0.3c0-0.4,0.1-0.7,0.3-1c0.1-0.1,0.1-0.3,0.2-0.4c0.1-0.2,0.2-0.3,0.3-0.5
				c0-0.1,0.1-0.1,0.2-0.1c0.1,0,0.2-0.1,0.3-0.1c0,0,0,0,0,0c0,0,0-0.1,0-0.1c0-0.1,0-0.1,0.1-0.1c0.1,0,0.1-0.1,0.2-0.1
				c0,0,0,0,0,0c0,0,0.1-0.1,0.1-0.1c0.1-0.1,0.1-0.1,0.2-0.1c0.1,0,0.1,0,0.2,0c0,0,0,0,0,0c0.1-0.1,0.1-0.1,0.2-0.2
				c0,0,0.1,0,0.1,0c0.1,0,0.1-0.1,0.1-0.1c0,0,0,0,0-0.1c0.1-0.1,0.2-0.1,0.3-0.1c0,0,0,0,0.1,0c0,0,0.1-0.1,0.1-0.1
				c0.1-0.1,0.2-0.1,0.3-0.1c0,0,0.1,0,0.1,0c0.2-0.1,0.3,0,0.4,0.1c0.1,0.1,0.1,0.1,0.2,0.2c0,0,0,0.1,0,0.1c0,0,0,0.1,0,0.1
				c0.1,0.2,0.2,0.3,0.4,0.5c0.1,0.1,0.1,0.2,0.1,0.3c0,0.1,0,0.2,0,0.4c0,0.1,0,0.1-0.1,0.2c-0.1,0.1-0.2,0.2-0.2,0.3
				c-0.4,0.7-0.8,1.4-1.1,2.2c-0.1,0.2-0.2,0.5-0.2,0.7c0,0.1,0,0.2,0,0.3c0,0.2,0.2,0.3,0.4,0.4c0.2,0,0.4,0,0.5-0.1c0,0,0,0,0,0
				c0.4-0.5,0.8-1.1,1.2-1.7c0.2-0.2,0.3-0.5,0.4-0.8c0-0.1,0.1-0.3,0.1-0.4c0-0.2,0-0.4,0.1-0.5c0.1-0.5,0.3-1.1,0.6-1.6
				c0.1-0.2,0.3-0.3,0.5-0.4c0.1,0,0.1,0,0.2-0.1c0.1,0,0.2-0.1,0.2-0.1c0,0,0,0,0,0c0.2-0.2,0.4-0.2,0.6-0.1c0.1,0,0.2,0.1,0.3,0.1
				c0.2,0.1,0.3,0.1,0.4,0c0.1-0.1,0.3-0.1,0.4,0c0,0,0.1,0.1,0.2,0.1c0.1,0.1,0.3,0.1,0.4,0c0.1,0,0.1-0.1,0.2-0.1
				c0.1,0,0.1,0,0.2,0.1c0.1,0.1,0.2,0.2,0.3,0.2c0.1,0,0.2,0.1,0.3,0.1c0.1,0,0.1,0.1,0.2,0.1c0,0,0,0.1,0.1,0.1
				c0.1,0,0.1,0.1,0.1,0.1c0,0.2,0,0.4,0,0.6c0,0.2,0,0.4-0.1,0.5c0,0,0,0,0,0.1c0,0,0,0.1,0,0.1c0,0.1,0,0.2,0,0.3
				c0,0.1-0.1,0.1-0.1,0.2c0,0,0,0,0,0.1c0,0,0,0.1,0,0.1c0,0.1,0,0.2-0.1,0.2c0,0.1-0.1,0.1-0.1,0.2c0,0,0,0,0,0.1c0,0,0,0,0,0
				c0,0.1,0,0.2-0.1,0.3c-0.1,0.1-0.1,0.1-0.2,0.2c0,0,0,0,0,0.1c0,0.1,0,0.1,0,0.2c0,0.1-0.1,0.2-0.2,0.2c0,0-0.1,0-0.1,0.1
				c0,0,0,0,0,0c0,0.1-0.1,0.3-0.2,0.3c-0.2,0.2-0.3,0.3-0.6,0.4c-0.2,0.1-0.5,0.1-0.8,0.1c-0.2,0-0.4-0.1-0.5-0.1
				c-0.3-0.1-0.6,0-0.8,0.1c-0.2,0.1-0.4,0.2-0.5,0.3c-0.1,0.1-0.3,0.2-0.4,0.3c-0.1,0.1-0.2,0.2-0.2,0.3c-0.1,0.1-0.1,0.2,0,0.3
				c0.1,0.1,0.2,0.1,0.3,0.1c0.2,0,0.5,0,0.7,0c0.2,0,0.3,0,0.5-0.1c0.1,0,0.3-0.1,0.4-0.2c0.2-0.1,0.4-0.2,0.6-0.2
				c0.2,0,0.4,0,0.6,0c0.4,0.1,0.9,0.1,1.3-0.1c0.1,0,0.2-0.1,0.3-0.2c0,0,0.1,0,0.1,0c0.1,0,0.3,0.1,0.4,0.1
				c0.2,0.1,0.3,0.2,0.4,0.3c0.1,0.1,0.1,0.2,0.1,0.3c0,0.1-0.1,0.2-0.1,0.3c-0.2,0.3-0.3,0.6-0.4,0.9c0,0.1-0.1,0.3-0.1,0.4
				c0,0.1-0.1,0.1-0.1,0.2c0,0.1-0.1,0.1-0.1,0.2c-0.1,0.2-0.2,0.3-0.3,0.4c-0.1,0-0.1,0.1-0.1,0.1c0,0,0,0.1-0.1,0.1
				c0,0-0.1,0.1-0.1,0.1c0,0,0,0,0,0c-0.1,0-0.1,0-0.2,0.1c0,0-0.1,0.1-0.1,0.1c0,0-0.1,0.1-0.2,0c0,0-0.1,0-0.1,0
				c0,0-0.1,0-0.1,0.1c-0.1,0.1-0.3,0.2-0.4,0.3c-0.1,0-0.1,0.1-0.2,0.1c0,0-0.1,0-0.1,0.1c-0.1,0.1-0.2,0.2-0.4,0.1
				c-0.6-0.1-1.1-0.2-1.6-0.4c-0.1,0-0.1-0.1-0.2-0.1c-0.1,0-0.1-0.1-0.1-0.1c-0.1-0.1-0.2-0.1-0.3,0c-0.1,0.1-0.1,0.2-0.1,0.3
				c0,0.1,0,0.1,0,0.2c0,0.2,0.1,0.4,0.3,0.5c0.1,0.2,0.2,0.3,0.3,0.6c0.1,0.2,0.1,0.4,0.2,0.6c0,0,0,0.1,0,0.2c0,0.1,0,0.2-0.1,0.3
				c0,0.1-0.1,0.1-0.1,0.1c-0.1,0.1-0.2,0.1-0.2,0.2c-0.1,0.1-0.1,0.1-0.2,0C68.9,22.7,68.9,22.7,68.8,22.6z"/>
			<path class="st0" d="M65,19.5C65,19.5,65.1,19.6,65,19.5c-0.1,0.2-0.2,0.3-0.3,0.5c-0.1,0.1-0.2,0.2-0.3,0.2
				c-0.4,0.4-0.9,0.8-1.2,1.3c-0.1,0.2-0.2,0.3-0.3,0.5c0,0.1,0,0.1-0.1,0.2c-0.1,0-0.2-0.1-0.3-0.1c0.1-0.1,0.2-0.3,0.3-0.4
				c0.2-0.3,0.4-0.6,0.7-0.8c0.2-0.3,0.5-0.5,0.8-0.7C64.6,20,64.8,19.8,65,19.5C65,19.5,65,19.5,65,19.5z"/>
			<path class="st0" d="M65.4,18.7c0,0,0.1,0,0.1,0c0,0,0.1,0,0.1,0c0,0,0,0,0,0c0,0.1,0.1,0.2,0.1,0.3c0,0,0,0,0,0
				c0,0-0.1-0.1-0.1-0.1c-0.1,0.2-0.3,0.4-0.5,0.6c0,0,0,0,0,0c0,0,0,0,0-0.1c0.1-0.2,0.3-0.4,0.4-0.6c0,0,0,0,0-0.1
				C65.5,18.8,65.5,18.7,65.4,18.7C65.4,18.7,65.4,18.7,65.4,18.7z"/>
		</g>
	</g>
	<g>
		<path class="st0" d="M48.2,57.8h1.1c0.2,0.4,0.3,0.7,0.5,1c0.1,0.3,0.3,0.7,0.4,1s0.3,0.6,0.4,1c0.1,0.3,0.3,0.7,0.4,1h0
			c0-0.1,0.1-0.1,0.1-0.2c0-0.1,0.1-0.2,0.1-0.2c0-0.1,0.1-0.2,0.1-0.2c0-0.1,0.1-0.1,0.1-0.2c0.2-0.5,0.4-1,0.6-1.5
			c0.2-0.5,0.4-1,0.6-1.6h1V58c-0.1,0-0.2,0-0.2,0c-0.1,0-0.1,0.1-0.2,0.1c0,0.1-0.1,0.1-0.1,0.2c0,0.1,0,0.2,0,0.4l0.2,3.1
			c0,0.1,0,0.2,0,0.2c0,0.1,0,0.1,0,0.2l0.5,0v0.3h-1.5v-0.2c0.1,0,0.2,0,0.3-0.1c0.1,0,0.1-0.1,0.1-0.2c0-0.1,0.1-0.2,0.1-0.3
			c0-0.1,0-0.2,0-0.3l-0.2-2.9c0,0,0,0.1,0,0.1c0,0,0,0.1,0,0.1L51,62.7h-0.2c-0.2-0.3-0.3-0.7-0.5-1c-0.2-0.3-0.3-0.7-0.5-1
			c-0.1-0.3-0.3-0.7-0.4-1c-0.1-0.3-0.3-0.7-0.4-1.1l0,0.3c0,0.1,0,0.2,0,0.4c0,0.1,0,0.3,0,0.5c0,0.2,0,0.3,0,0.5
			c0,0.2,0,0.4,0,0.5s0,0.4,0,0.5c0,0.2,0,0.3,0,0.5c0,0.1,0,0.2,0,0.3c0,0.1,0,0.2,0,0.3l0.5,0v0.3h-1.3v-0.2c0.1,0,0.2,0,0.3-0.1
			c0.1,0,0.1-0.1,0.1-0.1s0.1-0.1,0.1-0.2c0-0.1,0-0.2,0-0.2l0.2-3.7l-0.5,0V57.8z"/>
		<path class="st0" d="M57.7,60.6l-2.4,0c0,0.3,0,0.5,0.1,0.7c0,0.2,0.1,0.4,0.2,0.6c0.1,0.2,0.2,0.3,0.4,0.4
			c0.1,0.1,0.3,0.1,0.5,0.1c0.1,0,0.2,0,0.3,0s0.2-0.1,0.3-0.1c0.1-0.1,0.2-0.1,0.3-0.2c0.1-0.1,0.2-0.1,0.2-0.2l0.2,0.1
			c-0.1,0.1-0.2,0.3-0.3,0.4c-0.1,0.1-0.3,0.2-0.4,0.2c-0.1,0.1-0.3,0.1-0.4,0.1c-0.1,0-0.3,0-0.4,0c-0.2,0-0.5,0-0.7-0.1
			c-0.2-0.1-0.4-0.2-0.5-0.4c-0.2-0.2-0.3-0.4-0.4-0.6c-0.1-0.2-0.1-0.5-0.1-0.8c0-0.2,0-0.5,0.1-0.7c0.1-0.2,0.2-0.4,0.4-0.6
			c0.2-0.2,0.3-0.3,0.5-0.4c0.2-0.1,0.5-0.2,0.7-0.2c0.2,0,0.4,0,0.5,0.1c0.2,0.1,0.3,0.2,0.4,0.3c0.1,0.1,0.2,0.3,0.3,0.5
			C57.6,60.1,57.7,60.3,57.7,60.6z M56.3,59.3c-0.3,0-0.5,0.1-0.7,0.2c-0.2,0.2-0.3,0.4-0.3,0.8H57c0-0.1,0-0.2,0-0.4
			c0-0.1-0.1-0.2-0.1-0.3c-0.1-0.1-0.1-0.2-0.2-0.2C56.5,59.4,56.4,59.3,56.3,59.3z"/>
		<path class="st0" d="M61.6,61.9c0,0.1,0,0.1,0,0.2c0,0.1,0,0.2,0,0.3l0.5,0v0.3h-1c0-0.1,0-0.1,0-0.2c0-0.1,0-0.1,0-0.2
			c-0.1,0.1-0.3,0.3-0.5,0.3c-0.2,0.1-0.4,0.1-0.6,0.1c-0.2,0-0.4,0-0.6-0.1c-0.2-0.1-0.3-0.2-0.5-0.3c-0.1-0.2-0.2-0.3-0.3-0.5
			s-0.1-0.5-0.1-0.7c0-0.3,0-0.5,0.1-0.8c0.1-0.2,0.2-0.4,0.4-0.6c0.2-0.2,0.3-0.3,0.6-0.4c0.2-0.1,0.5-0.1,0.7-0.1
			c0.1,0,0.2,0,0.2,0c0.1,0,0.2,0,0.2,0c0.1,0,0.1,0,0.2,0.1c0.1,0,0.1,0,0.2,0.1l0-0.9c0-0.1,0-0.1,0-0.2c0-0.1,0-0.1,0-0.2l-0.5,0
			v-0.3c0.2,0,0.3,0,0.4,0c0.1,0,0.2,0,0.2,0c0.1,0,0.1,0,0.1-0.1c0,0,0.1,0,0.1-0.1h0.2V61.9z M60.1,62.4c0.1,0,0.2,0,0.2,0
			c0.1,0,0.2-0.1,0.2-0.1c0.1,0,0.1-0.1,0.2-0.1c0.1-0.1,0.1-0.1,0.2-0.2c0-0.1,0-0.1,0-0.2c0-0.1,0-0.1,0-0.2l0-2
			c-0.1-0.1-0.2-0.1-0.4-0.2c-0.1,0-0.3-0.1-0.4-0.1c-0.2,0-0.3,0-0.5,0.1c-0.1,0.1-0.3,0.2-0.4,0.3c-0.1,0.1-0.2,0.3-0.2,0.5
			c0,0.2-0.1,0.4-0.1,0.7c0,0.2,0,0.4,0.1,0.6c0.1,0.2,0.1,0.4,0.2,0.5c0.1,0.1,0.2,0.2,0.3,0.3C59.8,62.4,60,62.4,60.1,62.4z"/>
		<path class="st0" d="M63.1,60c0-0.1,0-0.1,0-0.2c0-0.1,0-0.1,0-0.2l-0.5,0v-0.3c0.2,0,0.3,0,0.4,0c0.1,0,0.2,0,0.2,0
			c0.1,0,0.1,0,0.1-0.1c0,0,0.1,0,0.1-0.1h0.2v2.8c0,0.1,0,0.2,0,0.2c0,0.1,0,0.1,0,0.2l0.4,0v0.3h-1.4v-0.2c0.1,0,0.2,0,0.2-0.1
			c0.1,0,0.1-0.1,0.1-0.2s0-0.2,0-0.3c0-0.1,0-0.2,0-0.3V60z M63.8,58c0,0.1,0,0.1,0,0.2c0,0,0,0.1-0.1,0.1s-0.1,0.1-0.1,0.1
			c0,0-0.1,0-0.1,0s-0.1,0-0.1,0c0,0-0.1,0-0.1-0.1c0,0-0.1-0.1-0.1-0.1c0,0,0-0.1,0-0.2c0-0.1,0-0.1,0-0.2c0-0.1,0-0.1,0.1-0.1
			c0,0,0.1-0.1,0.1-0.1c0,0,0.1,0,0.1,0c0.1,0,0.1,0,0.1,0c0,0,0.1,0.1,0.1,0.1c0,0,0.1,0.1,0.1,0.1C63.8,57.9,63.8,58,63.8,58z"/>
		<path class="st0" d="M64.6,59.2c0.1,0,0.2,0,0.3-0.1s0.2-0.1,0.3-0.2c0.1-0.1,0.1-0.2,0.2-0.3c0.1-0.1,0.1-0.2,0.1-0.3h0.2
			c0,0.2,0,0.4,0,0.5c0,0.2,0,0.3,0,0.5h1.2v0.3l-1.2,0c0,0.3,0,0.6,0,0.8s0,0.4,0,0.5c0,0.1,0,0.3,0,0.3c0,0.1,0,0.1,0,0.2
			c0,0,0,0.1,0,0.1c0,0,0,0,0,0c0,0.2,0,0.3,0,0.4c0,0.1,0,0.2,0.1,0.3s0.1,0.1,0.2,0.2c0.1,0,0.2,0.1,0.3,0.1c0.1,0,0.2,0,0.4-0.1
			c0.1-0.1,0.2-0.2,0.3-0.3l0.2,0.2c-0.1,0.2-0.2,0.3-0.3,0.4c-0.1,0.1-0.2,0.2-0.3,0.2c-0.1,0-0.2,0.1-0.3,0.1c-0.1,0-0.1,0-0.2,0
			c-0.1,0-0.1,0-0.2,0c-0.1,0-0.1,0-0.2-0.1c-0.1,0-0.1-0.1-0.2-0.1c-0.1-0.1-0.1-0.1-0.2-0.2c0-0.1-0.1-0.2-0.1-0.3
			c0-0.1,0-0.3,0-0.5l0-2l-0.5,0V59.2z"/>
		<path class="st0" d="M70.8,60.6l-2.4,0c0,0.3,0,0.5,0.1,0.7c0,0.2,0.1,0.4,0.2,0.6c0.1,0.2,0.2,0.3,0.4,0.4
			c0.1,0.1,0.3,0.1,0.5,0.1c0.1,0,0.2,0,0.3,0c0.1,0,0.2-0.1,0.3-0.1c0.1-0.1,0.2-0.1,0.3-0.2c0.1-0.1,0.2-0.1,0.2-0.2l0.2,0.1
			c-0.1,0.1-0.2,0.3-0.3,0.4c-0.1,0.1-0.3,0.2-0.4,0.2c-0.1,0.1-0.3,0.1-0.4,0.1c-0.1,0-0.3,0-0.4,0c-0.2,0-0.5,0-0.7-0.1
			c-0.2-0.1-0.4-0.2-0.5-0.4s-0.3-0.4-0.4-0.6s-0.1-0.5-0.1-0.8c0-0.2,0-0.5,0.1-0.7c0.1-0.2,0.2-0.4,0.4-0.6
			c0.2-0.2,0.3-0.3,0.5-0.4c0.2-0.1,0.5-0.2,0.7-0.2c0.2,0,0.4,0,0.5,0.1c0.2,0.1,0.3,0.2,0.4,0.3c0.1,0.1,0.2,0.3,0.3,0.5
			C70.7,60.1,70.8,60.3,70.8,60.6z M69.4,59.3c-0.3,0-0.5,0.1-0.7,0.2c-0.2,0.2-0.3,0.4-0.3,0.8h1.8c0-0.1,0-0.2,0-0.4
			c0-0.1-0.1-0.2-0.1-0.3c-0.1-0.1-0.1-0.2-0.2-0.2C69.6,59.4,69.5,59.3,69.4,59.3z"/>
		<path class="st0" d="M73.5,59.4c-0.1,0-0.2,0-0.3,0c-0.1,0-0.2,0.1-0.3,0.2c-0.1,0.1-0.2,0.1-0.2,0.2c-0.1,0.1-0.1,0.2-0.2,0.3
			l0,1.7c0,0.1,0,0.2,0,0.2c0,0.1,0,0.1,0,0.2l0.4,0v0.3h-1.4v-0.2c0.1,0,0.2,0,0.2-0.1c0.1,0,0.1-0.1,0.1-0.2s0-0.2,0-0.3
			c0-0.1,0-0.2,0-0.3V60c0-0.1,0-0.1,0-0.2c0-0.1,0-0.1,0-0.2l-0.5,0v-0.3h0.2c0.1,0,0.2,0,0.2,0c0.1,0,0.1,0,0.2,0
			c0,0,0.1,0,0.1-0.1c0,0,0.1,0,0.1-0.1h0.2c0,0.1,0,0.2,0,0.3c0,0.1,0,0.2,0,0.4c0.1-0.1,0.1-0.2,0.2-0.3c0.1-0.1,0.2-0.2,0.3-0.2
			c0.1-0.1,0.2-0.1,0.3-0.2c0.1,0,0.2-0.1,0.4-0.1c0.1,0,0.1,0,0.2,0c0.1,0,0.1,0,0.2,0.1c0,0,0.1,0.1,0.1,0.1c0,0.1,0,0.1,0,0.2
			c0,0,0,0.1,0,0.1c0,0,0,0.1-0.1,0.1c0,0-0.1,0.1-0.1,0.1c0,0-0.1,0-0.2,0c-0.1,0-0.1,0-0.1,0c0,0-0.1-0.1-0.1-0.1
			c0,0,0-0.1-0.1-0.1C73.5,59.6,73.5,59.5,73.5,59.4z"/>
		<path class="st0" d="M76.7,59.4c-0.1,0-0.2,0-0.3,0c-0.1,0-0.2,0.1-0.3,0.2c-0.1,0.1-0.2,0.1-0.2,0.2c-0.1,0.1-0.1,0.2-0.2,0.3
			l0,1.7c0,0.1,0,0.2,0,0.2c0,0.1,0,0.1,0,0.2l0.4,0v0.3h-1.4v-0.2c0.1,0,0.2,0,0.2-0.1c0.1,0,0.1-0.1,0.1-0.2c0-0.1,0-0.2,0-0.3
			c0-0.1,0-0.2,0-0.3V60c0-0.1,0-0.1,0-0.2c0-0.1,0-0.1,0-0.2l-0.5,0v-0.3h0.2c0.1,0,0.2,0,0.2,0c0.1,0,0.1,0,0.2,0
			c0,0,0.1,0,0.1-0.1c0,0,0.1,0,0.1-0.1h0.2c0,0.1,0,0.2,0,0.3s0,0.2,0,0.4c0.1-0.1,0.1-0.2,0.2-0.3c0.1-0.1,0.2-0.2,0.3-0.2
			s0.2-0.1,0.3-0.2c0.1,0,0.2-0.1,0.4-0.1c0.1,0,0.1,0,0.2,0c0.1,0,0.1,0,0.2,0.1c0,0,0.1,0.1,0.1,0.1c0,0.1,0,0.1,0,0.2
			c0,0,0,0.1,0,0.1c0,0,0,0.1-0.1,0.1c0,0-0.1,0.1-0.1,0.1c0,0-0.1,0-0.2,0c-0.1,0-0.1,0-0.1,0c0,0-0.1-0.1-0.1-0.1
			c0,0,0-0.1-0.1-0.1C76.7,59.6,76.7,59.5,76.7,59.4z"/>
		<path class="st0" d="M78,59.9c0-0.1,0-0.2,0.1-0.3c0.1-0.1,0.2-0.2,0.3-0.3c0.1-0.1,0.3-0.1,0.4-0.2c0.2,0,0.4-0.1,0.5-0.1
			c0.4,0,0.7,0.1,0.9,0.3c0.2,0.2,0.3,0.5,0.3,1l0,1.6c0,0.1,0,0.1,0,0.2c0,0.1,0,0.2,0,0.3l0.5,0v0.3h-1c0-0.1,0-0.1,0-0.2
			c0-0.1,0-0.1,0-0.2c-0.2,0.2-0.3,0.3-0.5,0.4c-0.2,0.1-0.4,0.1-0.6,0.1c-0.2,0-0.3,0-0.5-0.1s-0.2-0.1-0.3-0.2
			c-0.1-0.1-0.1-0.2-0.2-0.3c0-0.1-0.1-0.2-0.1-0.3c0-0.1,0-0.3,0.1-0.4s0.1-0.2,0.2-0.3c0.1-0.1,0.2-0.2,0.4-0.2
			c0.1-0.1,0.3-0.1,0.4-0.2c0.2,0,0.3-0.1,0.5-0.1c0.2,0,0.3,0,0.5,0v-0.4c0-0.1,0-0.2,0-0.3c0-0.1,0-0.2-0.1-0.3
			c0-0.1-0.1-0.2-0.2-0.2c-0.1-0.1-0.2-0.1-0.3-0.1c-0.1,0-0.1,0-0.2,0c-0.1,0-0.1,0-0.2,0.1s-0.1,0.1-0.2,0.1
			c-0.1,0-0.1,0.1-0.1,0.2c0,0,0.1,0.1,0.1,0.1c0,0,0,0.1,0,0.1c0,0,0,0.1,0,0.1c0,0,0,0.1-0.1,0.1c0,0-0.1,0.1-0.1,0.1
			c0,0-0.1,0-0.2,0c-0.1,0-0.2,0-0.2-0.1C78,60.1,78,60,78,59.9z M79.9,60.9c-0.1,0-0.2,0-0.3,0c-0.1,0-0.2,0-0.3,0.1
			c-0.1,0-0.2,0.1-0.3,0.1c-0.1,0-0.2,0.1-0.3,0.2c-0.1,0.1-0.1,0.1-0.2,0.2c0,0.1-0.1,0.2-0.1,0.3c0,0.1,0,0.2,0,0.2
			s0.1,0.1,0.1,0.2c0,0,0.1,0.1,0.2,0.1c0.1,0,0.1,0,0.2,0c0.1,0,0.2,0,0.3,0s0.2,0,0.2-0.1c0.1,0,0.1-0.1,0.2-0.1
			c0.1,0,0.1-0.1,0.2-0.2V60.9z"/>
		<path class="st0" d="M82,60c0-0.1,0-0.1,0-0.2c0-0.1,0-0.2,0-0.2l-0.5,0v-0.3c0.2,0,0.3,0,0.4,0c0.1,0,0.2,0,0.2,0
			c0.1,0,0.1,0,0.1-0.1c0,0,0.1,0,0.1-0.1h0.2c0,0.1,0,0.1,0,0.2c0,0.1,0,0.1,0,0.2c0.1-0.1,0.2-0.1,0.2-0.2
			c0.1-0.1,0.2-0.1,0.3-0.1c0.1,0,0.2-0.1,0.3-0.1c0.1,0,0.2,0,0.3,0c0.4,0,0.7,0.1,0.9,0.4c0.2,0.3,0.3,0.6,0.3,1.2v1.3
			c0,0.1,0,0.2,0,0.2c0,0.1,0,0.1,0,0.2l0.4,0v0.3h-1.4v-0.2c0.1,0,0.2,0,0.2-0.1c0.1,0,0.1-0.1,0.1-0.2c0-0.1,0-0.2,0-0.3
			c0-0.1,0-0.2,0-0.3v-1c0-0.4-0.1-0.7-0.2-0.9c-0.1-0.2-0.3-0.3-0.6-0.3c-0.1,0-0.2,0-0.2,0c-0.1,0-0.2,0.1-0.2,0.1
			c-0.1,0-0.1,0.1-0.2,0.1c-0.1,0.1-0.1,0.1-0.2,0.2c0,0,0,0.1,0,0.1c0,0,0,0.1,0,0.1l0,1.8c0,0.1,0,0.2,0,0.2c0,0.1,0,0.1,0,0.2
			l0.4,0v0.3h-1.4v-0.2c0.1,0,0.2,0,0.2-0.1c0.1,0,0.1-0.1,0.1-0.2c0-0.1,0-0.2,0-0.3c0-0.1,0-0.2,0-0.3L82,60z"/>
		<path class="st0" d="M89.1,60.6l-2.4,0c0,0.3,0,0.5,0.1,0.7c0,0.2,0.1,0.4,0.2,0.6c0.1,0.2,0.2,0.3,0.4,0.4
			c0.1,0.1,0.3,0.1,0.5,0.1c0.1,0,0.2,0,0.3,0c0.1,0,0.2-0.1,0.3-0.1c0.1-0.1,0.2-0.1,0.3-0.2c0.1-0.1,0.2-0.1,0.2-0.2l0.2,0.1
			c-0.1,0.1-0.2,0.3-0.3,0.4c-0.1,0.1-0.3,0.2-0.4,0.2c-0.1,0.1-0.3,0.1-0.4,0.1c-0.1,0-0.3,0-0.4,0c-0.2,0-0.5,0-0.7-0.1
			c-0.2-0.1-0.4-0.2-0.5-0.4s-0.3-0.4-0.4-0.6c-0.1-0.2-0.1-0.5-0.1-0.8c0-0.2,0-0.5,0.1-0.7c0.1-0.2,0.2-0.4,0.4-0.6
			c0.2-0.2,0.3-0.3,0.5-0.4c0.2-0.1,0.5-0.2,0.7-0.2c0.2,0,0.4,0,0.5,0.1c0.2,0.1,0.3,0.2,0.4,0.3c0.1,0.1,0.2,0.3,0.3,0.5
			C89,60.1,89.1,60.3,89.1,60.6z M87.7,59.3c-0.3,0-0.5,0.1-0.7,0.2c-0.2,0.2-0.3,0.4-0.3,0.8h1.8c0-0.1,0-0.2,0-0.4
			c0-0.1-0.1-0.2-0.1-0.3c-0.1-0.1-0.1-0.2-0.2-0.2C87.9,59.4,87.8,59.3,87.7,59.3z"/>
		<path class="st0" d="M90,59.9c0-0.1,0-0.2,0.1-0.3c0.1-0.1,0.2-0.2,0.3-0.3c0.1-0.1,0.3-0.1,0.4-0.2c0.2,0,0.4-0.1,0.5-0.1
			c0.4,0,0.7,0.1,0.9,0.3c0.2,0.2,0.3,0.5,0.3,1l0,1.6c0,0.1,0,0.1,0,0.2c0,0.1,0,0.2,0,0.3l0.5,0v0.3h-1c0-0.1,0-0.1,0-0.2
			c0-0.1,0-0.1,0-0.2c-0.2,0.2-0.3,0.3-0.5,0.4c-0.2,0.1-0.4,0.1-0.6,0.1c-0.2,0-0.3,0-0.5-0.1c-0.1,0-0.2-0.1-0.3-0.2
			c-0.1-0.1-0.1-0.2-0.2-0.3c0-0.1-0.1-0.2-0.1-0.3c0-0.1,0-0.3,0.1-0.4s0.1-0.2,0.2-0.3c0.1-0.1,0.2-0.2,0.4-0.2
			c0.1-0.1,0.3-0.1,0.4-0.2c0.2,0,0.3-0.1,0.5-0.1c0.2,0,0.3,0,0.5,0v-0.4c0-0.1,0-0.2,0-0.3c0-0.1,0-0.2-0.1-0.3
			c0-0.1-0.1-0.2-0.2-0.2c-0.1-0.1-0.2-0.1-0.3-0.1c-0.1,0-0.1,0-0.2,0c-0.1,0-0.1,0-0.2,0.1c-0.1,0-0.1,0.1-0.2,0.1
			c-0.1,0-0.1,0.1-0.1,0.2c0,0,0.1,0.1,0.1,0.1c0,0,0,0.1,0,0.1c0,0,0,0.1,0,0.1c0,0,0,0.1-0.1,0.1c0,0-0.1,0.1-0.1,0.1
			c0,0-0.1,0-0.2,0c-0.1,0-0.2,0-0.2-0.1C90,60.1,90,60,90,59.9z M91.9,60.9c-0.1,0-0.2,0-0.3,0c-0.1,0-0.2,0-0.3,0.1
			c-0.1,0-0.2,0.1-0.3,0.1c-0.1,0-0.2,0.1-0.3,0.2c-0.1,0.1-0.1,0.1-0.2,0.2c0,0.1-0.1,0.2-0.1,0.3c0,0.1,0,0.2,0,0.2
			s0.1,0.1,0.1,0.2c0,0,0.1,0.1,0.2,0.1c0.1,0,0.1,0,0.2,0c0.1,0,0.2,0,0.3,0s0.2,0,0.2-0.1c0.1,0,0.1-0.1,0.2-0.1
			c0.1,0,0.1-0.1,0.2-0.2V60.9z"/>
		<path class="st0" d="M94,60c0-0.1,0-0.1,0-0.2c0-0.1,0-0.2,0-0.2l-0.5,0v-0.3c0.2,0,0.3,0,0.4,0c0.1,0,0.2,0,0.2,0
			c0.1,0,0.1,0,0.1-0.1c0,0,0.1,0,0.1-0.1h0.2c0,0.1,0,0.1,0,0.2c0,0.1,0,0.1,0,0.2c0.1-0.1,0.2-0.1,0.2-0.2
			c0.1-0.1,0.2-0.1,0.3-0.1c0.1,0,0.2-0.1,0.3-0.1c0.1,0,0.2,0,0.3,0c0.4,0,0.7,0.1,0.9,0.4c0.2,0.3,0.3,0.6,0.3,1.2v1.3
			c0,0.1,0,0.2,0,0.2c0,0.1,0,0.1,0,0.2l0.4,0v0.3h-1.4v-0.2c0.1,0,0.2,0,0.2-0.1c0.1,0,0.1-0.1,0.1-0.2c0-0.1,0-0.2,0-0.3
			c0-0.1,0-0.2,0-0.3v-1c0-0.4-0.1-0.7-0.2-0.9c-0.1-0.2-0.3-0.3-0.6-0.3c-0.1,0-0.2,0-0.2,0c-0.1,0-0.2,0.1-0.2,0.1
			c-0.1,0-0.1,0.1-0.2,0.1c-0.1,0.1-0.1,0.1-0.2,0.2c0,0,0,0.1,0,0.1c0,0,0,0.1,0,0.1l0,1.8c0,0.1,0,0.2,0,0.2c0,0.1,0,0.1,0,0.2
			l0.4,0v0.3h-1.4v-0.2c0.1,0,0.2,0,0.2-0.1c0.1,0,0.1-0.1,0.1-0.2c0-0.1,0-0.2,0-0.3c0-0.1,0-0.2,0-0.3L94,60z"/>
		<path class="st0" d="M101.1,61.8c0,0.1,0,0.2,0,0.3c0,0.1,0,0.2,0,0.2l0.7,0v0.3H100v-0.2c0.1,0,0.2,0,0.3-0.1
			c0.1,0,0.1-0.1,0.1-0.2c0-0.1,0-0.2,0-0.3c0-0.1,0-0.2,0-0.3v-3c0-0.1,0-0.2,0-0.3c0-0.1,0-0.2,0-0.2l-0.5,0v-0.3h3.2l0,1.2H103
			c0-0.2,0-0.4-0.1-0.5c-0.1-0.1-0.1-0.2-0.2-0.3c-0.1-0.1-0.2-0.1-0.3-0.1c-0.1,0-0.2,0-0.4,0l-0.5,0c-0.1,0-0.2,0-0.3,0.1
			c-0.1,0-0.1,0.1-0.1,0.2c0,0.1,0,0.2,0,0.3c0,0.1,0,0.2,0,0.3v1.2h1.2l-0.1-0.6h0.3V61h-0.2c0-0.1,0-0.2,0-0.3s-0.1-0.1-0.1-0.2
			c-0.1,0-0.1-0.1-0.2-0.1c-0.1,0-0.2,0-0.3,0c0,0-0.1,0-0.1,0s-0.2,0-0.5,0V61.8z"/>
		<path class="st0" d="M104.3,60c0-0.1,0-0.1,0-0.2c0-0.1,0-0.1,0-0.2l-0.5,0v-0.3c0.2,0,0.3,0,0.4,0c0.1,0,0.2,0,0.2,0
			c0.1,0,0.1,0,0.1-0.1c0,0,0.1,0,0.1-0.1h0.2v2.8c0,0.1,0,0.2,0,0.2c0,0.1,0,0.1,0,0.2l0.4,0v0.3h-1.4v-0.2c0.1,0,0.2,0,0.2-0.1
			c0.1,0,0.1-0.1,0.1-0.2c0-0.1,0-0.2,0-0.3c0-0.1,0-0.2,0-0.3V60z M104.9,58c0,0.1,0,0.1,0,0.2c0,0,0,0.1-0.1,0.1
			c0,0-0.1,0.1-0.1,0.1c0,0-0.1,0-0.1,0s-0.1,0-0.1,0c0,0-0.1,0-0.1-0.1c0,0-0.1-0.1-0.1-0.1c0,0,0-0.1,0-0.2c0-0.1,0-0.1,0-0.2
			c0-0.1,0-0.1,0.1-0.1c0,0,0.1-0.1,0.1-0.1c0,0,0.1,0,0.1,0s0.1,0,0.1,0c0,0,0.1,0.1,0.1,0.1c0,0,0.1,0.1,0.1,0.1
			C104.9,57.9,104.9,58,104.9,58z"/>
		<path class="st0" d="M109,59c-0.1,0-0.1,0-0.2,0.1c0,0-0.1,0.1-0.1,0.1c0,0-0.1,0.1-0.1,0.1c0,0.1,0,0.1,0,0.2
			c0.1,0.1,0.2,0.2,0.3,0.4c0.1,0.1,0.1,0.3,0.1,0.5c0,0.2,0,0.4-0.1,0.5c-0.1,0.2-0.2,0.3-0.3,0.4c-0.1,0.1-0.3,0.2-0.5,0.3
			c-0.2,0.1-0.4,0.1-0.6,0.1c-0.1,0-0.2,0-0.2,0c-0.1,0-0.1,0-0.2,0c-0.1,0-0.2,0-0.2,0c-0.1,0-0.1,0.1-0.2,0.1c0,0-0.1,0.1-0.1,0.1
			s0,0.1,0,0.1s0,0.1,0,0.1c0,0.1,0.1,0.1,0.1,0.1c0.1,0,0.1,0.1,0.2,0.1c0.1,0,0.2,0,0.3,0c0.1,0,0.3,0,0.4,0c0.3,0,0.5,0,0.7,0.1
			c0.2,0,0.4,0.1,0.5,0.2c0.1,0.1,0.3,0.2,0.3,0.3c0.1,0.1,0.1,0.3,0.1,0.5c0,0.2-0.1,0.4-0.2,0.5c-0.1,0.1-0.2,0.3-0.4,0.4
			c-0.2,0.1-0.3,0.2-0.5,0.2c-0.2,0.1-0.4,0.1-0.6,0.1c-0.3,0-0.6,0-0.8-0.1c-0.2-0.1-0.4-0.1-0.5-0.2c-0.1-0.1-0.2-0.2-0.3-0.3
			c-0.1-0.1-0.1-0.2-0.1-0.3c0-0.1,0-0.2,0.1-0.3s0.1-0.2,0.2-0.2c0.1-0.1,0.1-0.1,0.2-0.2c0.1-0.1,0.1-0.1,0.2-0.1
			c-0.1,0-0.3-0.1-0.4-0.2c-0.1-0.1-0.1-0.2-0.1-0.3c0-0.1,0-0.2,0.1-0.2c0-0.1,0.1-0.1,0.1-0.2c0.1-0.1,0.1-0.1,0.2-0.2
			c0.1,0,0.2-0.1,0.3-0.1c-0.1,0-0.2-0.1-0.3-0.2c-0.1-0.1-0.2-0.2-0.2-0.2c-0.1-0.1-0.1-0.2-0.1-0.3c0-0.1,0-0.2,0-0.3
			c0-0.2,0-0.4,0.1-0.6c0.1-0.2,0.2-0.3,0.3-0.4c0.1-0.1,0.3-0.2,0.5-0.3c0.2-0.1,0.4-0.1,0.5-0.1c0.2,0,0.3,0,0.5,0.1
			c0.2,0,0.3,0.1,0.4,0.2c0-0.1,0.1-0.2,0.1-0.3c0.1-0.1,0.1-0.2,0.2-0.2c0.1-0.1,0.2-0.1,0.2-0.1c0.1,0,0.2-0.1,0.3-0.1
			c0.1,0,0.2,0,0.3,0.1c0.1,0.1,0.1,0.1,0.1,0.3c0,0,0,0.1,0,0.1c0,0,0,0.1-0.1,0.1c0,0-0.1,0.1-0.1,0.1c0,0-0.1,0-0.1,0
			c-0.1,0-0.1,0-0.2-0.1C109.1,59.2,109.1,59.1,109,59z M107.6,62.9c-0.1,0-0.3,0-0.4,0c-0.1,0-0.2,0-0.3,0
			c-0.1,0.1-0.2,0.2-0.3,0.3c-0.1,0.1-0.1,0.2-0.1,0.4c0,0.1,0,0.2,0.1,0.3s0.1,0.2,0.2,0.2c0.1,0.1,0.2,0.1,0.4,0.1
			c0.1,0,0.3,0.1,0.5,0.1c0.2,0,0.4,0,0.5-0.1c0.2,0,0.3-0.1,0.4-0.2c0.1-0.1,0.2-0.1,0.2-0.2c0.1-0.1,0.1-0.2,0.1-0.3
			c0-0.1,0-0.2-0.1-0.3c-0.1-0.1-0.2-0.1-0.3-0.2c-0.1,0-0.3-0.1-0.4-0.1C108,62.9,107.8,62.9,107.6,62.9z M107.5,59.3
			c-0.1,0-0.2,0-0.3,0.1c-0.1,0-0.2,0.1-0.2,0.2c-0.1,0.1-0.1,0.2-0.2,0.3c0,0.1-0.1,0.2-0.1,0.4c0,0.2,0,0.3,0.1,0.5
			c0,0.1,0.1,0.3,0.2,0.4c0.1,0.1,0.2,0.2,0.3,0.2c0.1,0.1,0.2,0.1,0.3,0.1c0.1,0,0.2,0,0.3-0.1c0.1,0,0.2-0.1,0.2-0.2
			c0.1-0.1,0.1-0.2,0.1-0.3c0-0.1,0-0.2,0-0.4c0-0.2,0-0.3-0.1-0.4c0-0.1-0.1-0.3-0.2-0.4c-0.1-0.1-0.2-0.2-0.3-0.3
			C107.8,59.3,107.7,59.3,107.5,59.3z"/>
		<g>
			<path class="st0" d="M49.3,70.1c0,0.1,0,0.2,0,0.3c0,0.1,0,0.2,0,0.2l0.7,0v0.3h-1.8v-0.2c0.1,0,0.2,0,0.3-0.1
				c0.1,0,0.1-0.1,0.1-0.2c0-0.1,0-0.2,0-0.3c0-0.1,0-0.2,0-0.3v-3c0-0.1,0-0.2,0-0.3c0-0.1,0-0.2,0-0.2l-0.5,0v-0.3h3.2l0,1.2h-0.2
				c0-0.2,0-0.4-0.1-0.5s-0.1-0.2-0.2-0.3s-0.2-0.1-0.3-0.1c-0.1,0-0.2,0-0.4,0l-0.5,0c-0.1,0-0.2,0-0.3,0.1s-0.1,0.1-0.1,0.2
				c0,0.1,0,0.2,0,0.3c0,0.1,0,0.2,0,0.3v1.2h1.2l-0.1-0.6h0.3v1.5h-0.2c0-0.1,0-0.2,0-0.3c0-0.1-0.1-0.1-0.1-0.2s-0.1-0.1-0.2-0.1
				c-0.1,0-0.2,0-0.3,0c0,0-0.1,0-0.1,0c0,0-0.2,0-0.5,0V70.1z"/>
			<path class="st0" d="M52.4,66.6c0-0.1,0-0.1,0-0.2s0-0.1,0-0.2l-0.5,0v-0.3c0.2,0,0.3,0,0.4,0c0.1,0,0.2,0,0.2,0
				c0.1,0,0.1,0,0.1-0.1c0,0,0.1,0,0.1-0.1H53l0,4.5c0,0.1,0,0.2,0,0.2s0,0.1,0,0.2l0.4,0v0.3H52v-0.2c0.1,0,0.2,0,0.2-0.1
				c0.1,0,0.1-0.1,0.1-0.2c0-0.1,0-0.2,0-0.3c0-0.1,0-0.2,0-0.3V66.6z"/>
			<path class="st0" d="M54.2,68.2c0-0.1,0-0.2,0.1-0.3c0.1-0.1,0.2-0.2,0.3-0.3c0.1-0.1,0.3-0.1,0.4-0.2c0.2,0,0.4-0.1,0.5-0.1
				c0.4,0,0.7,0.1,0.9,0.3c0.2,0.2,0.3,0.5,0.3,1l0,1.6c0,0.1,0,0.1,0,0.2c0,0.1,0,0.2,0,0.3l0.5,0v0.3h-1c0-0.1,0-0.1,0-0.2
				c0-0.1,0-0.1,0-0.2c-0.2,0.2-0.3,0.3-0.5,0.4C55.5,71,55.3,71,55.1,71c-0.2,0-0.3,0-0.5-0.1c-0.1,0-0.2-0.1-0.3-0.2
				c-0.1-0.1-0.1-0.2-0.2-0.3c0-0.1-0.1-0.2-0.1-0.3c0-0.1,0-0.3,0.1-0.4c0.1-0.1,0.1-0.2,0.2-0.3c0.1-0.1,0.2-0.2,0.4-0.2
				c0.1-0.1,0.3-0.1,0.4-0.2c0.2,0,0.3-0.1,0.5-0.1c0.2,0,0.3,0,0.5,0v-0.4c0-0.1,0-0.2,0-0.3c0-0.1,0-0.2-0.1-0.3s-0.1-0.2-0.2-0.2
				c-0.1-0.1-0.2-0.1-0.3-0.1c-0.1,0-0.1,0-0.2,0c-0.1,0-0.1,0-0.2,0.1c-0.1,0-0.1,0.1-0.2,0.1c-0.1,0-0.1,0.1-0.1,0.2
				c0,0,0.1,0.1,0.1,0.1c0,0,0,0.1,0,0.1c0,0,0,0.1,0,0.1c0,0,0,0.1-0.1,0.1s-0.1,0.1-0.1,0.1c0,0-0.1,0-0.2,0c-0.1,0-0.2,0-0.2-0.1
				C54.3,68.3,54.2,68.3,54.2,68.2z M56.1,69.2c-0.1,0-0.2,0-0.3,0c-0.1,0-0.2,0-0.3,0.1c-0.1,0-0.2,0.1-0.3,0.1
				c-0.1,0-0.2,0.1-0.3,0.2c-0.1,0.1-0.1,0.1-0.2,0.2c0,0.1-0.1,0.2-0.1,0.3c0,0.1,0,0.2,0,0.2c0,0.1,0.1,0.1,0.1,0.2
				c0,0,0.1,0.1,0.2,0.1c0.1,0,0.1,0,0.2,0c0.1,0,0.2,0,0.3,0c0.1,0,0.2,0,0.2-0.1c0.1,0,0.1-0.1,0.2-0.1c0.1,0,0.1-0.1,0.2-0.2
				V69.2z"/>
			<path class="st0" d="M59.3,70.9h-0.3l-1-2.3c-0.1-0.1-0.1-0.2-0.1-0.3c0-0.1-0.1-0.2-0.1-0.3c0-0.1,0-0.1,0-0.2
				c0-0.1,0-0.1,0-0.1l-0.3,0v-0.3h1.3v0.2c-0.1,0-0.2,0-0.2,0.1c0,0-0.1,0.1-0.1,0.2c0,0.1,0,0.2,0,0.2c0,0.1,0.1,0.2,0.1,0.3
				l0.5,1.2c0,0.1,0.1,0.2,0.1,0.2c0,0.1,0.1,0.2,0.1,0.3h0c0-0.1,0.1-0.1,0.1-0.2c0-0.1,0.1-0.2,0.1-0.2l0.5-1.5
				c0-0.1,0.1-0.2,0.1-0.3c0-0.1,0.1-0.1,0.1-0.2l-0.4,0v-0.3h1.1v0.2c-0.1,0-0.1,0-0.2,0.1c-0.1,0-0.1,0.1-0.2,0.2
				c0,0.1-0.1,0.2-0.1,0.3c0,0.1-0.1,0.3-0.2,0.4L59.3,70.9z"/>
			<path class="st0" d="M63.1,67.3c0.2,0,0.5,0,0.7,0.1c0.2,0.1,0.4,0.2,0.6,0.4c0.2,0.2,0.3,0.3,0.4,0.6c0.1,0.2,0.1,0.4,0.1,0.7
				c0,0.3,0,0.5-0.1,0.8c-0.1,0.2-0.2,0.4-0.4,0.6c-0.2,0.2-0.3,0.3-0.6,0.4C63.6,71,63.3,71,63.1,71c-0.2,0-0.5,0-0.7-0.1
				c-0.2-0.1-0.4-0.2-0.5-0.4c-0.2-0.2-0.3-0.3-0.4-0.6c-0.1-0.2-0.1-0.5-0.1-0.7c0-0.3,0-0.5,0.1-0.8c0.1-0.2,0.2-0.4,0.4-0.6
				c0.2-0.2,0.3-0.3,0.5-0.4S62.9,67.3,63.1,67.3z M63.1,67.6c-0.2,0-0.3,0-0.5,0.1c-0.1,0.1-0.2,0.2-0.3,0.3
				c-0.1,0.1-0.1,0.3-0.2,0.5c0,0.2-0.1,0.4-0.1,0.5c0,0.2,0,0.4,0.1,0.6c0,0.2,0.1,0.4,0.2,0.5c0.1,0.2,0.2,0.3,0.3,0.4
				s0.3,0.1,0.5,0.1c0.2,0,0.3,0,0.5-0.1c0.1-0.1,0.2-0.2,0.3-0.3c0.1-0.1,0.1-0.3,0.2-0.5c0-0.2,0.1-0.4,0.1-0.5
				c0-0.2,0-0.4-0.1-0.6c0-0.2-0.1-0.4-0.2-0.5c-0.1-0.2-0.2-0.3-0.3-0.4C63.4,67.6,63.3,67.6,63.1,67.6z"/>
			<path class="st0" d="M67.6,67.7c-0.1,0-0.2,0-0.3,0c-0.1,0-0.2,0.1-0.3,0.2c-0.1,0.1-0.2,0.1-0.2,0.2s-0.1,0.2-0.2,0.3l0,1.7
				c0,0.1,0,0.2,0,0.2s0,0.1,0,0.2l0.4,0v0.3h-1.4v-0.2c0.1,0,0.2,0,0.2-0.1c0.1,0,0.1-0.1,0.1-0.2s0-0.2,0-0.3c0-0.1,0-0.2,0-0.3
				v-1.6c0-0.1,0-0.1,0-0.2c0-0.1,0-0.1,0-0.2l-0.5,0v-0.3h0.2c0.1,0,0.2,0,0.2,0c0.1,0,0.1,0,0.2,0c0,0,0.1,0,0.1-0.1
				c0,0,0.1,0,0.1-0.1h0.2c0,0.1,0,0.2,0,0.3c0,0.1,0,0.2,0,0.4c0.1-0.1,0.1-0.2,0.2-0.3c0.1-0.1,0.2-0.2,0.3-0.2
				c0.1-0.1,0.2-0.1,0.3-0.2c0.1,0,0.2-0.1,0.4-0.1c0.1,0,0.1,0,0.2,0c0.1,0,0.1,0,0.2,0.1s0.1,0.1,0.1,0.1c0,0.1,0,0.1,0,0.2
				c0,0,0,0.1,0,0.1s0,0.1-0.1,0.1c0,0-0.1,0.1-0.1,0.1c0,0-0.1,0-0.2,0c-0.1,0-0.1,0-0.1,0c0,0-0.1-0.1-0.1-0.1c0,0,0-0.1-0.1-0.1
				C67.6,67.8,67.6,67.8,67.6,67.7z"/>
			<path class="st0" d="M71.8,68.9l-2.4,0c0,0.3,0,0.5,0.1,0.7c0,0.2,0.1,0.4,0.2,0.6c0.1,0.2,0.2,0.3,0.4,0.4
				c0.1,0.1,0.3,0.1,0.5,0.1c0.1,0,0.2,0,0.3,0c0.1,0,0.2-0.1,0.3-0.1c0.1-0.1,0.2-0.1,0.3-0.2c0.1-0.1,0.2-0.1,0.2-0.2l0.2,0.1
				c-0.1,0.1-0.2,0.3-0.3,0.4c-0.1,0.1-0.3,0.2-0.4,0.2c-0.1,0.1-0.3,0.1-0.4,0.1c-0.1,0-0.3,0-0.4,0c-0.2,0-0.5,0-0.7-0.1
				c-0.2-0.1-0.4-0.2-0.5-0.4s-0.3-0.4-0.4-0.6c-0.1-0.2-0.1-0.5-0.1-0.8c0-0.2,0-0.5,0.1-0.7c0.1-0.2,0.2-0.4,0.4-0.6
				c0.2-0.2,0.3-0.3,0.5-0.4c0.2-0.1,0.5-0.2,0.7-0.2c0.2,0,0.4,0,0.5,0.1c0.2,0.1,0.3,0.2,0.4,0.3c0.1,0.1,0.2,0.3,0.3,0.5
				C71.8,68.4,71.8,68.6,71.8,68.9z M70.4,67.6c-0.3,0-0.5,0.1-0.7,0.2c-0.2,0.2-0.3,0.4-0.3,0.8h1.8c0-0.1,0-0.2,0-0.4
				c0-0.1-0.1-0.2-0.1-0.3s-0.1-0.2-0.2-0.2C70.7,67.6,70.6,67.6,70.4,67.6z"/>
			<path class="st0" d="M75.7,70.2c0,0.1,0,0.1,0,0.2c0,0.1,0,0.2,0,0.3l0.5,0v0.3h-1c0-0.1,0-0.1,0-0.2s0-0.1,0-0.2
				c-0.1,0.1-0.3,0.3-0.5,0.3C74.5,71,74.3,71,74.1,71c-0.2,0-0.4,0-0.6-0.1c-0.2-0.1-0.3-0.2-0.5-0.3c-0.1-0.2-0.2-0.3-0.3-0.5
				c-0.1-0.2-0.1-0.5-0.1-0.7c0-0.3,0-0.5,0.1-0.8c0.1-0.2,0.2-0.4,0.4-0.6c0.2-0.2,0.3-0.3,0.6-0.4c0.2-0.1,0.5-0.1,0.7-0.1
				c0.1,0,0.2,0,0.2,0c0.1,0,0.2,0,0.2,0c0.1,0,0.1,0,0.2,0.1c0.1,0,0.1,0,0.2,0.1l0-0.9c0-0.1,0-0.1,0-0.2c0-0.1,0-0.1,0-0.2
				l-0.5,0v-0.3c0.2,0,0.3,0,0.4,0c0.1,0,0.2,0,0.2,0c0.1,0,0.1,0,0.1-0.1c0,0,0.1,0,0.1-0.1h0.2V70.2z M74.3,70.7
				c0.1,0,0.2,0,0.2,0s0.2-0.1,0.2-0.1c0.1,0,0.1-0.1,0.2-0.1c0.1-0.1,0.1-0.1,0.2-0.2c0-0.1,0-0.1,0-0.2c0-0.1,0-0.1,0-0.2l0-2
				c-0.1-0.1-0.2-0.1-0.4-0.2c-0.1,0-0.3-0.1-0.4-0.1c-0.2,0-0.3,0-0.5,0.1c-0.1,0.1-0.3,0.2-0.4,0.3c-0.1,0.1-0.2,0.3-0.2,0.5
				c0,0.2-0.1,0.4-0.1,0.7c0,0.2,0,0.4,0.1,0.6c0.1,0.2,0.1,0.4,0.2,0.5c0.1,0.1,0.2,0.2,0.3,0.3C74,70.6,74.2,70.7,74.3,70.7z"/>
			<path class="st0" d="M78.6,66.1h1.6v0.2l0,0c-0.1,0-0.2,0-0.3,0.1c-0.1,0-0.1,0.1-0.1,0.1c0,0.1,0,0.1,0,0.2c0,0.1,0,0.2,0.1,0.3
				c0.1,0.1,0.1,0.3,0.2,0.4c0.1,0.1,0.1,0.3,0.2,0.4c0.1,0.1,0.1,0.3,0.2,0.4c0.1,0.1,0.1,0.3,0.2,0.4c0.1,0.1,0.1,0.3,0.2,0.4
				c0.1,0.1,0.1,0.2,0.2,0.4c0,0.1,0.1,0.2,0.1,0.3c0,0.1,0.1,0.2,0.1,0.3h0c0.6-1.7,1-2.7,1.1-3c0.1-0.3,0.2-0.5,0.2-0.6l-0.5,0
				v-0.3h1.4v0.2c-0.1,0-0.2,0-0.3,0c-0.1,0-0.1,0.1-0.2,0.1c-0.1,0.1-0.1,0.1-0.2,0.2c0,0.1-0.1,0.2-0.2,0.5
				c-0.1,0.2-0.2,0.5-0.3,0.8c-0.1,0.3-0.2,0.6-0.3,0.9c-0.1,0.3-0.2,0.6-0.3,0.9c-0.1,0.4-0.3,0.8-0.4,1.2h-0.2l-1.6-3.7
				c-0.1-0.1-0.1-0.2-0.1-0.3c0-0.1-0.1-0.2-0.1-0.3c0-0.1,0-0.1-0.1-0.2c0-0.1,0-0.1,0-0.2l-0.4,0V66.1z"/>
			<path class="st0" d="M85,67.3c0.2,0,0.5,0,0.7,0.1c0.2,0.1,0.4,0.2,0.6,0.4c0.2,0.2,0.3,0.3,0.4,0.6c0.1,0.2,0.1,0.4,0.1,0.7
				c0,0.3,0,0.5-0.1,0.8c-0.1,0.2-0.2,0.4-0.4,0.6c-0.2,0.2-0.3,0.3-0.6,0.4C85.5,71,85.3,71,85,71c-0.2,0-0.5,0-0.7-0.1
				c-0.2-0.1-0.4-0.2-0.5-0.4c-0.2-0.2-0.3-0.3-0.4-0.6c-0.1-0.2-0.1-0.5-0.1-0.7c0-0.3,0-0.5,0.1-0.8c0.1-0.2,0.2-0.4,0.4-0.6
				c0.2-0.2,0.3-0.3,0.5-0.4C84.5,67.4,84.8,67.3,85,67.3z M85,67.6c-0.2,0-0.3,0-0.5,0.1s-0.2,0.2-0.3,0.3
				c-0.1,0.1-0.1,0.3-0.2,0.5c0,0.2-0.1,0.4-0.1,0.5c0,0.2,0,0.4,0.1,0.6c0,0.2,0.1,0.4,0.2,0.5c0.1,0.2,0.2,0.3,0.3,0.4
				c0.1,0.1,0.3,0.1,0.5,0.1s0.3,0,0.5-0.1c0.1-0.1,0.2-0.2,0.3-0.3c0.1-0.1,0.1-0.3,0.2-0.5c0-0.2,0.1-0.4,0.1-0.5
				c0-0.2,0-0.4-0.1-0.6c0-0.2-0.1-0.4-0.2-0.5c-0.1-0.2-0.2-0.3-0.3-0.4C85.4,67.6,85.2,67.6,85,67.6z"/>
			<path class="st0" d="M90.7,70.2c0,0.1,0,0.1,0,0.2c0,0.1,0,0.2,0,0.3l0.5,0v0.3h-1c0-0.1,0-0.1,0-0.2s0-0.1,0-0.2
				c-0.1,0.1-0.3,0.3-0.5,0.3C89.4,71,89.2,71,89,71c-0.2,0-0.4,0-0.6-0.1c-0.2-0.1-0.3-0.2-0.5-0.3c-0.1-0.2-0.2-0.3-0.3-0.5
				c-0.1-0.2-0.1-0.5-0.1-0.7c0-0.3,0-0.5,0.1-0.8c0.1-0.2,0.2-0.4,0.4-0.6c0.2-0.2,0.3-0.3,0.6-0.4c0.2-0.1,0.5-0.1,0.7-0.1
				c0.1,0,0.2,0,0.2,0c0.1,0,0.2,0,0.2,0c0.1,0,0.1,0,0.2,0.1c0.1,0,0.1,0,0.2,0.1l0-0.9c0-0.1,0-0.1,0-0.2c0-0.1,0-0.1,0-0.2
				l-0.5,0v-0.3c0.2,0,0.3,0,0.4,0c0.1,0,0.2,0,0.2,0c0.1,0,0.1,0,0.1-0.1c0,0,0.1,0,0.1-0.1h0.2V70.2z M89.2,70.7
				c0.1,0,0.2,0,0.2,0s0.2-0.1,0.2-0.1c0.1,0,0.1-0.1,0.2-0.1s0.1-0.1,0.2-0.2c0-0.1,0-0.1,0-0.2c0-0.1,0-0.1,0-0.2l0-2
				c-0.1-0.1-0.2-0.1-0.4-0.2c-0.1,0-0.3-0.1-0.4-0.1c-0.2,0-0.3,0-0.5,0.1c-0.1,0.1-0.3,0.2-0.4,0.3c-0.1,0.1-0.2,0.3-0.2,0.5
				c0,0.2-0.1,0.4-0.1,0.7c0,0.2,0,0.4,0.1,0.6c0.1,0.2,0.1,0.4,0.2,0.5c0.1,0.1,0.2,0.2,0.3,0.3C88.9,70.6,89.1,70.7,89.2,70.7z"/>
			<path class="st0" d="M93.8,67.4h1.3v0.2c-0.1,0-0.2,0-0.3,0.1s-0.2,0.1-0.3,0.2c-0.1,0.1-0.2,0.1-0.3,0.2S94,68.3,94,68.4
				l-0.5,0.6c0.1,0,0.2,0.1,0.2,0.2c0.1,0.1,0.1,0.1,0.2,0.2l0.5,0.6c0,0,0,0,0.1,0.1s0.1,0.1,0.1,0.2c0,0.1,0.1,0.1,0.1,0.2
				c0.1,0.1,0.1,0.1,0.2,0.2c0.1,0,0.1,0.1,0.2,0.1c0.1,0,0.1,0,0.2,0v0.2h-0.6c-0.1,0-0.1,0-0.2-0.1c-0.1,0-0.1-0.1-0.2-0.1
				c-0.1-0.1-0.1-0.1-0.2-0.2c-0.1-0.1-0.1-0.2-0.2-0.2c-0.2-0.2-0.3-0.5-0.5-0.6c-0.1-0.2-0.2-0.3-0.3-0.4l-0.3,0v0.9
				c0,0.1,0,0.2,0,0.2c0,0.1,0,0.1,0,0.2l0.4,0v0.3h-1.4v-0.2c0.1,0,0.2,0,0.2-0.1c0.1,0,0.1-0.1,0.1-0.2s0-0.2,0-0.3
				c0-0.1,0-1.3,0-3.6c0-0.1,0-0.1,0-0.2c0-0.1,0-0.1,0-0.2l-0.5,0v-0.3c0.2,0,0.3,0,0.4,0c0.1,0,0.2,0,0.2,0c0.1,0,0.1,0,0.1-0.1
				c0,0,0.1,0,0.1-0.1h0.2v3.3H93l0.8-0.9c0.1-0.1,0.1-0.1,0.2-0.2c0.1-0.1,0.1-0.1,0.2-0.2l-0.5,0V67.4z"/>
			<path class="st0" d="M95.8,68.2c0-0.1,0-0.2,0.1-0.3c0.1-0.1,0.2-0.2,0.3-0.3c0.1-0.1,0.3-0.1,0.4-0.2s0.4-0.1,0.5-0.1
				c0.4,0,0.7,0.1,0.9,0.3c0.2,0.2,0.3,0.5,0.3,1l0,1.6c0,0.1,0,0.1,0,0.2c0,0.1,0,0.2,0,0.3l0.5,0v0.3h-1c0-0.1,0-0.1,0-0.2
				c0-0.1,0-0.1,0-0.2c-0.2,0.2-0.3,0.3-0.5,0.4C97.1,71,96.9,71,96.7,71c-0.2,0-0.3,0-0.5-0.1c-0.1,0-0.2-0.1-0.3-0.2
				c-0.1-0.1-0.1-0.2-0.2-0.3s-0.1-0.2-0.1-0.3c0-0.1,0-0.3,0.1-0.4c0.1-0.1,0.1-0.2,0.2-0.3c0.1-0.1,0.2-0.2,0.4-0.2
				c0.1-0.1,0.3-0.1,0.4-0.2c0.2,0,0.3-0.1,0.5-0.1c0.2,0,0.3,0,0.5,0v-0.4c0-0.1,0-0.2,0-0.3c0-0.1,0-0.2-0.1-0.3
				c0-0.1-0.1-0.2-0.2-0.2c-0.1-0.1-0.2-0.1-0.3-0.1c-0.1,0-0.1,0-0.2,0c-0.1,0-0.1,0-0.2,0.1c-0.1,0-0.1,0.1-0.2,0.1
				c-0.1,0-0.1,0.1-0.1,0.2c0,0,0.1,0.1,0.1,0.1s0,0.1,0,0.1c0,0,0,0.1,0,0.1c0,0,0,0.1-0.1,0.1c0,0-0.1,0.1-0.1,0.1
				c0,0-0.1,0-0.2,0c-0.1,0-0.2,0-0.2-0.1C95.9,68.3,95.8,68.3,95.8,68.2z M97.7,69.2c-0.1,0-0.2,0-0.3,0c-0.1,0-0.2,0-0.3,0.1
				c-0.1,0-0.2,0.1-0.3,0.1c-0.1,0-0.2,0.1-0.3,0.2c-0.1,0.1-0.1,0.1-0.2,0.2c0,0.1-0.1,0.2-0.1,0.3c0,0.1,0,0.2,0,0.2
				c0,0.1,0.1,0.1,0.1,0.2c0,0,0.1,0.1,0.2,0.1c0.1,0,0.1,0,0.2,0c0.1,0,0.2,0,0.3,0s0.2,0,0.2-0.1c0.1,0,0.1-0.1,0.2-0.1
				c0.1,0,0.1-0.1,0.2-0.2V69.2z"/>
		</g>
	</g>
</g>
</svg>
